<svg width="549" height="120" viewBox="0 0 549 120" fill="none" xmlns="http://www.w3.org/2000/svg">
<path d="M33.5169 0C33.5169 0 35.0492 3.80713 33.4659 8.24278C32.9228 9.76483 32.362 11.0149 31.7248 12.04C32.9535 11.0281 34.2201 10.0615 35.5246 9.1447C36.6964 6.68765 38.9478 4.91403 42.7282 2.96588C47.7577 0.374462 52.4089 1.3372 52.4089 1.3372C52.4089 1.3372 50.4973 5.68273 45.4667 8.27415C41.7156 10.2071 38.9786 11.012 36.3155 10.5642C34.4848 11.8586 32.7272 13.249 31.0529 14.734C32.2281 14.1161 33.6724 13.6427 35.4619 13.2295C40.0201 12.1771 43.6082 14.1 43.6615 14.1288C43.6502 14.1446 41.2688 17.4743 36.688 18.5325C32.7384 19.4444 30.1723 19.3699 27.8518 17.7888C25.9467 19.7429 24.169 21.8271 22.5331 24.0316C23.7862 23.1015 25.4423 22.4114 27.6309 21.7794L28.0531 21.6657C32.3874 20.5808 35.8684 22.2343 35.8684 22.2343C35.8512 22.2614 33.6527 25.7058 29.1432 27.008C25.3881 28.0921 22.8693 28.1868 20.5397 26.889C19.3105 28.7583 18.1747 30.7018 17.1451 32.7162C16.8696 33.2552 16.6038 33.7977 16.3451 34.3423C17.5189 33.2522 19.1386 32.3828 21.3344 31.5267L21.3331 31.5254C25.7244 29.8134 29.5785 31.2326 29.5785 31.2326C29.5785 31.2326 27.7035 34.8842 23.3134 36.5958C19.8063 37.9631 17.3585 38.315 15.0053 37.3735C13.82 40.2573 12.8627 43.2065 12.1361 46.1993C13.0629 44.8043 14.5239 43.5672 16.6183 42.2151C20.5493 39.6783 24.5791 40.2694 24.6362 40.278C24.6362 40.278 23.5326 44.2299 19.5737 46.7849C16.3689 48.853 14.0202 49.6837 11.4878 49.1913C10.8623 52.4836 10.5127 55.8178 10.4395 59.1647C11.0124 57.4526 12.2462 55.8307 14.1962 53.9218C17.5629 50.6267 21.6651 50.42 21.6651 50.42C21.6651 50.42 21.3745 54.5138 18.0078 57.8092C15.2382 60.52 13.0781 61.7978 10.4408 61.7803C10.509 64.9854 10.8276 68.1948 11.4067 71.3825C11.6221 69.5858 12.5058 67.7459 14.038 65.4795C16.6603 61.6008 20.6054 60.568 20.6534 60.5555C20.6607 60.6122 21.1708 64.6503 18.5515 68.5251C16.3794 71.7378 14.5168 73.4229 11.927 73.9314C12.2716 75.4586 12.6734 76.9797 13.1374 78.4907C13.6002 79.998 14.1201 81.4797 14.6903 82.9349C14.6474 81.2471 15.1454 79.3851 16.1098 77.0594C17.9132 72.7082 21.605 70.9106 21.605 70.9106C21.605 70.9106 22.9438 74.7895 21.141 79.1403C19.6815 82.6628 18.2217 84.6795 15.8575 85.7126C17.0923 88.4625 18.522 91.1036 20.1305 93.622C19.6677 91.9153 19.7645 89.9147 20.2704 87.3008C21.1601 82.7058 24.382 80.2112 24.4232 80.1795C24.4494 80.2241 26.5072 83.7404 25.6179 88.3347C24.8822 92.1359 23.8329 94.4144 21.6547 95.8978C23.298 98.2335 25.1015 100.452 27.0557 102.537C26.5001 101.085 26.2784 99.3128 26.2545 97.048C26.2046 92.3387 28.8949 89.2379 28.8949 89.2379C28.8949 89.2379 31.6504 92.2812 31.7 96.9905C31.7391 100.736 31.2053 103.143 29.5092 105.006C31.8436 107.229 34.3599 109.278 37.0448 111.13C36.0452 109.764 35.3948 107.945 34.8632 105.478C33.8718 100.874 35.888 97.299 35.888 97.299C35.9293 97.3295 39.2031 99.7581 40.1885 104.333C40.9955 108.078 40.9352 110.572 39.5571 112.774C40.3505 113.267 41.1561 113.745 41.9753 114.204C44.7627 115.768 46.2298 117.236 46.7346 118.967C46.8589 119.395 46.6138 119.843 46.1856 119.967C45.9995 120.022 45.8098 120.006 45.6445 119.936V119.933C45.4295 119.843 45.2547 119.658 45.1843 119.416C44.9307 118.546 44.2453 117.326 41.1845 115.609C40.0048 114.948 38.853 114.249 37.7258 113.521C37.7411 113.541 37.7578 113.561 37.7729 113.582C35.6355 115.412 33.0905 115.765 29.0596 115.285C24.4017 114.731 21.6756 111.692 21.6494 111.663C21.6966 111.631 24.8488 109.472 29.2687 109.838L29.704 109.881C31.2662 110.067 32.5821 110.324 33.7038 110.7C31.6158 109.11 29.6368 107.401 27.776 105.58C25.3308 106.915 22.7755 106.748 18.9489 105.48C14.5052 104.008 12.443 100.496 12.4158 100.449C12.4638 100.429 16.2189 98.8421 20.6639 100.315C22.0684 100.78 23.2466 101.264 24.2336 101.813C22.5805 99.9049 21.0451 97.899 19.6325 95.805C19.6915 95.9972 19.7451 96.1938 19.7907 96.3958C17.1076 97.2409 14.6275 96.5676 11.1087 94.5475C7.04169 92.2118 5.72654 88.3477 5.71418 88.3112C5.71418 88.3112 9.73611 87.4822 13.8223 89.8287C15.3734 90.7196 16.5961 91.5692 17.532 92.4744C16.0939 90.0246 14.816 87.4705 13.7112 84.8237C13.7355 85.0508 13.7534 85.282 13.7583 85.5178C10.9593 85.8091 8.66442 84.6525 5.62137 81.969C2.08819 78.8518 1.58626 74.7797 1.58626 74.7797C1.64545 74.7798 5.71857 74.7949 9.22644 77.8894C10.5778 79.0811 11.61 80.1655 12.3466 81.2474C12.0833 80.4922 11.8295 79.7319 11.5937 78.9639C10.9016 76.7099 10.3424 74.4345 9.90877 72.1485C9.89605 72.525 9.85837 72.9063 9.7872 73.2948C6.98677 73.0204 4.96903 71.4289 2.52478 68.1905C-0.312398 64.4302 0.0111606 60.3398 0.0111606 60.3398C0.0111606 60.3398 4.03596 61.1544 6.8736 64.9148C8.09178 66.5293 8.94486 67.9294 9.43166 69.2702C8.98098 66.0977 8.77352 62.9111 8.81208 59.7333C8.73111 60.0347 8.63298 60.3361 8.51144 60.6379C5.82294 59.808 4.16608 57.8469 2.42021 54.1846C0.393354 49.9335 1.53005 45.9901 1.53005 45.9901C1.57287 46.0084 5.32114 47.6173 7.33633 51.8448C8.1689 53.5921 8.71096 55.0805 8.93887 56.442C9.12667 53.5639 9.51521 50.7006 10.1022 47.8698C10.0631 47.9325 10.0272 47.9983 9.98589 48.0606C7.51737 46.711 6.28598 44.4563 5.30897 40.5198C4.17979 35.9701 6.06174 32.3465 6.07887 32.3136C6.07887 32.3136 9.46083 34.6401 10.595 39.2114C10.9744 40.7412 11.2004 42.0642 11.2447 43.2478C12.0345 40.5088 13.0182 37.8121 14.1883 35.1723C14.0055 35.4014 13.8093 35.626 13.5936 35.8416C11.4455 34.0243 10.6924 31.5696 10.5244 27.5177C10.3298 22.829 12.9034 19.653 12.9217 19.6305C12.9217 19.6305 15.7693 22.5876 15.9647 27.2929C16.0441 29.207 15.9601 30.7755 15.6432 32.1084C15.6646 32.0662 15.6856 32.0238 15.7072 31.9816C17.0075 29.438 18.4705 27.0038 20.0783 24.6878C20.0125 24.7311 19.9486 24.7779 19.8809 24.8198C18.2061 22.5596 18.0336 19.9979 18.7986 16.015C19.6865 11.3902 22.9409 8.88719 22.9409 8.88719C22.9555 8.91189 25.0333 12.4323 24.1487 17.0411C23.8895 18.392 23.5852 19.5496 23.2101 20.5494C24.7432 18.6896 26.3789 16.9236 28.1093 15.2582C28.0934 15.265 28.0782 15.2736 28.0622 15.2804C26.7517 12.7924 26.9727 10.2338 28.3367 6.4141C29.9131 1.99848 33.485 0.0176122 33.5169 0Z" fill="white"/>
<path d="M144.633 14.2018H70.5674V108.637H144.633V14.2018Z" fill="white"/>
<path d="M143.709 15.1274H71.4937V107.712H143.709V15.1274Z" fill="#D0103A"/>
<path fill-rule="evenodd" clip-rule="evenodd" d="M101.858 96.7433C102.803 96.7433 103.128 97.1565 103.129 97.5929V99.5275C103.129 99.9684 102.803 100.378 101.858 100.378C100.912 100.378 100.588 99.9647 100.588 99.5275V97.5929C100.588 97.1565 100.912 96.7433 101.858 96.7433ZM101.858 97.3236C101.508 97.3236 101.297 97.4546 101.297 97.7171V99.4007C101.297 99.6632 101.508 99.7941 101.858 99.7941C102.208 99.7941 102.423 99.6632 102.423 99.4007V97.7171C102.423 97.4546 102.208 97.3237 101.858 97.3236Z" fill="white"/>
<path d="M98.8425 96.7394C99.7873 96.7394 100.07 97.1519 100.07 97.589V97.84C100.07 97.9354 100.039 97.9707 99.9509 97.9707H99.5183C99.4232 97.9707 99.3877 97.9354 99.3876 97.84V97.7119C99.3874 97.4503 99.2039 97.3197 98.8543 97.3197C98.505 97.3199 98.3263 97.4505 98.3262 97.7119V99.3968C98.3262 99.6584 98.5049 99.7901 98.8543 99.7902C99.204 99.7902 99.3876 99.6585 99.3876 99.3968V99.1981C99.3876 99.1029 99.423 99.0674 99.5183 99.0674H99.9509C100.039 99.0674 100.07 99.1029 100.07 99.1981V99.5249C100.07 99.9656 99.7873 100.374 98.8425 100.374C97.8981 100.374 97.6166 99.9611 97.6164 99.5249V97.589C97.6166 97.152 97.8981 96.7395 98.8425 96.7394Z" fill="white"/>
<path d="M108.217 96.7394C109.135 96.7394 109.425 97.1519 109.425 97.589V97.8034C109.425 97.8911 109.39 97.9354 109.294 97.9354H108.858C108.77 97.9354 108.739 97.8911 108.739 97.8034V97.6844C108.739 97.4303 108.567 97.308 108.229 97.308C107.892 97.308 107.717 97.4266 107.717 97.6844V97.7642C107.717 97.9468 107.848 98.0145 107.931 98.0465L108.841 98.372C109.194 98.4991 109.457 98.7374 109.458 99.1223V99.5249C109.457 99.9656 109.146 100.374 108.213 100.374C107.281 100.374 106.967 99.9611 106.966 99.5249V99.1942C106.966 99.0992 107.002 99.0583 107.093 99.0582H107.531C107.626 99.0584 107.658 99.0992 107.658 99.1942V99.4281C107.658 99.6823 107.856 99.8058 108.209 99.8059C108.563 99.8059 108.762 99.6869 108.762 99.4281V99.2621C108.762 99.0472 108.551 98.9635 108.317 98.8765L107.506 98.5746C107.256 98.4793 107.029 98.2135 107.029 97.9001V97.589C107.029 97.1519 107.3 96.7394 108.217 96.7394Z" fill="white"/>
<path d="M110.609 96.7825C110.696 96.7825 110.736 96.827 110.736 96.9184V99.4007H110.74C110.74 99.6624 110.951 99.7941 111.301 99.7941C111.65 99.7941 111.868 99.6624 111.868 99.4007V96.9184C111.868 96.8233 111.901 96.7825 111.996 96.7825H112.448C112.543 96.7826 112.567 96.827 112.567 96.9184V99.5249C112.567 99.9656 112.241 100.374 111.296 100.374C110.351 100.374 110.025 99.9611 110.025 99.5249V96.9184C110.025 96.8233 110.061 96.7826 110.156 96.7825H110.609Z" fill="white"/>
<path d="M124.124 96.7394C125.041 96.7394 125.331 97.1519 125.332 97.589V97.8034C125.332 97.8911 125.296 97.9354 125.2 97.9354H124.763C124.676 97.9354 124.644 97.8911 124.644 97.8034V97.6844H124.64C124.64 97.4303 124.469 97.308 124.132 97.308C123.794 97.308 123.619 97.4266 123.619 97.6844V97.7642C123.619 97.9471 123.75 98.0145 123.834 98.0465L124.743 98.372C125.097 98.4991 125.359 98.7374 125.359 99.1223V99.5249C125.359 99.9656 125.049 100.374 124.116 100.374C123.183 100.374 122.869 99.9612 122.869 99.5249V99.1942C122.869 99.099 122.904 99.0582 122.996 99.0582H123.436C123.532 99.0582 123.563 99.099 123.563 99.1942V99.4281C123.563 99.6824 123.762 99.8059 124.116 99.8059C124.469 99.8058 124.668 99.6868 124.668 99.4281V99.2621C124.668 99.0473 124.457 98.9635 124.223 98.8765L123.413 98.5746C123.163 98.4794 122.936 98.2137 122.936 97.9001V97.589C122.936 97.1519 123.206 96.7394 124.124 96.7394Z" fill="white"/>
<path d="M119.086 96.7825C119.173 96.7825 119.218 96.8145 119.218 96.9093V97.24C119.218 97.3352 119.173 97.3707 119.086 97.3707H117.878V98.2177H118.995C119.09 98.2177 119.129 98.2493 119.129 98.3445V98.6582C119.129 98.7451 119.09 98.785 118.995 98.785H117.878V99.7588H119.138C119.233 99.7589 119.269 99.7899 119.269 99.8856V100.215C119.269 100.31 119.233 100.346 119.138 100.346H117.299V100.334C117.204 100.334 117.172 100.291 117.172 100.199V96.9184C117.172 96.8233 117.204 96.7825 117.299 96.7825H119.086Z" fill="white"/>
<path fill-rule="evenodd" clip-rule="evenodd" d="M91.8794 96.7825C92.8246 96.7825 93.1421 97.1331 93.1421 97.5733V97.8831C93.1421 98.1373 93.0237 98.3447 92.75 98.4674C93.103 98.5945 93.3014 98.8127 93.3016 99.0987V99.5118C93.3015 99.949 92.9834 100.339 92.0376 100.339H90.9213V100.334C90.8263 100.334 90.7958 100.291 90.7958 100.199V96.9184C90.7958 96.8234 90.8263 96.7826 90.9213 96.7825H91.8794ZM91.5016 99.7706H92.0376C92.3874 99.7706 92.6062 99.643 92.6062 99.385V99.1497C92.6058 98.924 92.387 98.7889 92.0376 98.7889H91.5016V99.7706ZM91.5016 98.2569H91.8951C92.2283 98.2569 92.4439 98.1295 92.4441 97.8635V97.6805C92.4438 97.4184 92.2282 97.3472 91.8794 97.3472H91.5016V98.2569Z" fill="white"/>
<path d="M116.321 96.7786C116.417 96.7786 116.448 96.8226 116.448 96.9093V100.203C116.448 100.291 116.417 100.334 116.321 100.334H115.889C115.794 100.334 115.762 100.291 115.762 100.203V98.2164C115.762 98.2164 115.662 98.5507 115.61 98.6935L115.213 99.6673C115.177 99.7504 115.13 99.7979 115.043 99.798H114.673C114.586 99.798 114.538 99.7468 114.506 99.6673L114.061 98.6177C114.01 98.5069 113.947 98.2678 113.942 98.2321V100.207C113.942 100.295 113.91 100.339 113.814 100.339H113.401C113.306 100.339 113.276 100.295 113.276 100.207V96.9145C113.276 96.8269 113.306 96.7826 113.401 96.7825H113.814C113.882 96.7825 113.911 96.8106 113.931 96.8544L114.728 98.6778C114.792 98.8206 114.86 99.0438 114.86 99.0438C114.86 99.0438 114.927 98.8409 114.995 98.6818L115.77 96.8426C115.789 96.7945 115.825 96.7786 115.889 96.7786H116.321Z" fill="white"/>
<path d="M94.1237 96.7786C94.2107 96.7786 94.2518 96.8299 94.2793 96.9093L94.776 98.1014H94.7839C94.8159 98.1847 94.8677 98.356 94.8714 98.3798C94.8762 98.3588 94.9225 98.1844 94.9655 98.1014L95.5185 96.9093C95.5503 96.8383 95.5824 96.7789 95.6688 96.7786H96.1184C96.2059 96.7787 96.2535 96.8264 96.2139 96.9093L95.2244 98.9759V100.203C95.2243 100.291 95.1928 100.334 95.0976 100.334H94.644C94.5492 100.334 94.5133 100.291 94.5133 100.203V99.0582L93.5212 96.9093C93.485 96.83 93.5208 96.7788 93.6074 96.7786H94.1237Z" fill="white"/>
<path d="M104.34 96.7786C104.396 96.7786 104.428 96.7952 104.451 96.8309L105.501 98.6347C105.588 98.7856 105.68 98.9994 105.68 98.9994V96.9093C105.68 96.8226 105.712 96.7786 105.807 96.7786H106.22C106.315 96.7786 106.347 96.8226 106.347 96.9093V100.203C106.347 100.291 106.315 100.334 106.22 100.334H105.807C105.739 100.334 105.712 100.319 105.688 100.271L104.679 98.5432C104.54 98.309 104.476 98.1334 104.468 98.1171V100.203C104.468 100.291 104.436 100.334 104.34 100.334H103.927C103.832 100.334 103.8 100.291 103.8 100.203V96.9093C103.801 96.8228 103.833 96.7787 103.927 96.7786H104.34Z" fill="white"/>
<path fill-rule="evenodd" clip-rule="evenodd" d="M121.073 96.7786C122.018 96.7786 122.335 97.1919 122.336 97.6282V98.1262C122.335 98.4359 122.181 98.7256 121.76 98.8765L122.324 100.191C122.359 100.275 122.296 100.326 122.205 100.326H121.745C121.673 100.326 121.649 100.275 121.613 100.191L121.1 98.9759H120.551L120.557 98.9798V100.195C120.556 100.291 120.524 100.33 120.43 100.33H119.976C119.881 100.33 119.85 100.287 119.849 100.195V96.9145C119.849 96.8186 119.881 96.7786 119.976 96.7786H121.073ZM120.557 98.3955H121.073C121.422 98.3955 121.638 98.2645 121.638 98.0021V97.7563C121.638 97.4946 121.422 97.3629 121.073 97.3629H120.557V98.3955Z" fill="white"/>
<path d="M118.757 84.2732C118.943 84.2732 119.027 84.3367 119.027 84.5229V85.183C119.027 85.3696 118.943 85.4457 118.757 85.4457H116.103V86.8156H116.814C118.602 86.8156 119.238 87.5913 119.238 88.477V89.771C119.238 90.6492 118.693 91.4755 116.822 91.4755C114.951 91.4755 114.408 90.6492 114.408 89.771V89.4377C114.408 89.2587 114.471 89.175 114.657 89.175H115.524C115.71 89.1752 115.785 89.2589 115.786 89.4377V89.5645C115.786 90.0888 116.112 90.3475 116.799 90.3475C117.486 90.3474 117.823 90.0842 117.823 89.5645V88.6744C117.823 88.2063 117.489 87.9437 116.799 87.9437H114.927C114.749 87.9435 114.685 87.8606 114.685 87.6744V84.5477C114.685 84.3613 114.749 84.2774 114.927 84.2772H118.753L118.757 84.2732Z" fill="white"/>
<path fill-rule="evenodd" clip-rule="evenodd" d="M105.076 84.1909C106.903 84.1909 107.511 85.0166 107.511 85.8941V89.7593C107.511 90.6374 106.895 91.4638 105.076 91.4638C103.257 91.4638 102.641 90.6374 102.641 89.7593V85.8941C102.641 85.0166 103.248 84.1909 105.076 84.1909ZM105.076 85.3621C104.397 85.3621 104.05 85.6245 104.05 86.1451V89.5096C104.05 90.0337 104.385 90.2913 105.076 90.2913C105.767 90.2913 106.101 90.0299 106.101 89.5096V86.1451C106.101 85.6208 105.755 85.3621 105.076 85.3621Z" fill="white"/>
<path d="M99.1889 84.1935C101.008 84.1937 101.611 85.02 101.611 85.898V86.7241C101.611 87.7368 101.048 88.1343 100.619 88.3136L98.8516 89.0443C98.5495 89.1714 98.3589 89.2753 98.3589 89.6286V90.2115H101.389C101.568 90.2115 101.651 90.276 101.652 90.4625V91.1226C101.651 91.309 101.568 91.384 101.389 91.384H97.2099C97.0234 91.384 96.9407 91.3126 96.9406 91.1226V89.1998C96.9406 88.6161 97.3056 88.4164 97.6517 88.2691L99.7928 87.3725C99.9796 87.3011 100.21 87.153 100.21 86.7633V86.1241C100.21 85.6039 99.876 85.3426 99.185 85.3425C98.4937 85.3425 98.1721 85.6038 98.1719 86.1241V86.5333C98.1719 86.7205 98.1078 86.7959 97.934 86.796H97.0674C96.8806 86.796 96.806 86.7244 96.806 86.5333V85.898C96.8061 85.0199 97.3703 84.1935 99.1889 84.1935Z" fill="white"/>
<path d="M110.932 84.1935C112.75 84.1936 113.354 85.02 113.354 85.898V86.7241C113.354 87.7369 112.79 88.1344 112.361 88.3136L110.594 89.0443C110.291 89.1714 110.101 89.2754 110.101 89.6286V90.2115H113.136C113.315 90.2115 113.397 90.276 113.397 90.4625V91.1226C113.397 91.309 113.314 91.384 113.136 91.384H108.957C108.771 91.384 108.687 91.3126 108.687 91.1226V89.1998C108.687 88.6161 109.052 88.4164 109.398 88.2691L111.539 87.3725C111.725 87.3011 111.957 87.153 111.957 86.7633V86.1241C111.957 85.6039 111.622 85.3426 110.932 85.3425C110.241 85.3425 109.919 85.6038 109.919 86.1241V86.5333C109.919 86.7207 109.855 86.796 109.676 86.796H108.809C108.623 86.7959 108.548 86.7242 108.548 86.5333V85.898C108.548 85.0199 109.113 84.1935 110.932 84.1935Z" fill="white"/>
<path d="M109.331 68.904L109.327 68.9118C109.417 68.9163 109.473 68.9312 109.505 68.9628C109.537 68.9903 109.545 69.0428 109.545 69.1223L109.52 69.8804C109.513 70.0351 109.466 70.0869 109.31 70.0869L107.213 70.0242L107.169 71.4294L109.092 71.4895C109.266 71.4932 109.314 71.5412 109.31 71.6999L109.286 72.411C109.279 72.5656 109.231 72.6175 109.076 72.6175L107.134 72.5587L107.083 74.1587L109.259 74.2266C109.434 74.2311 109.481 74.2787 109.477 74.4371L109.454 75.1965C109.449 75.3509 109.398 75.403 109.247 75.403L105.791 75.2946C105.712 75.2908 105.66 75.2755 105.628 75.2436C105.597 75.2116 105.585 75.1524 105.585 75.0658L105.776 69.019C105.783 68.8517 105.832 68.8007 105.978 68.8007L109.331 68.904Z" fill="white"/>
<path d="M100.389 67.6439L101.365 67.9459C101.437 67.9659 101.481 67.9938 101.501 68.0295C101.52 68.066 101.521 68.1255 101.493 68.2086L100.806 70.4255L102.31 70.866L102.999 68.653C103.047 68.5024 103.106 68.4909 103.157 68.4909C103.186 68.491 103.221 68.4987 103.261 68.5105L104.237 68.8125L104.23 68.8086C104.377 68.8561 104.405 68.9113 104.353 69.0739L102.614 74.6763C102.566 74.8306 102.514 74.8423 102.462 74.8423C102.434 74.8423 102.402 74.8346 102.363 74.8227L101.386 74.5207C101.315 74.4969 101.266 74.4649 101.246 74.4292C101.226 74.3891 101.232 74.3294 101.255 74.2502L101.969 71.9548L100.463 71.5182L99.7536 73.8136C99.7059 73.9682 99.654 73.9809 99.6019 73.9809C99.5744 73.9809 99.5388 73.9719 99.4987 73.96L98.5209 73.658C98.3666 73.6105 98.3388 73.5475 98.3863 73.3888L100.126 67.7877C100.174 67.6367 100.234 67.6243 100.286 67.6243C100.314 67.6244 100.35 67.6321 100.389 67.6439Z" fill="white"/>
<path d="M117.474 65.8322C117.499 65.8322 117.569 65.8339 117.572 65.9721L117.74 70.2621L117.732 70.2582L118.817 72.3078C118.896 72.4586 118.876 72.5266 118.737 72.5979L117.8 73.079C117.748 73.1071 117.703 73.1182 117.668 73.1182C117.625 73.1181 117.573 73.0984 117.51 72.9757L116.512 71.0974L113.041 68.2766C112.989 68.2327 112.966 68.1881 112.966 68.1524C112.97 68.1132 113.009 68.0729 113.076 68.0374L114.137 67.4975C114.189 67.4739 114.232 67.4623 114.272 67.4622C114.347 67.4622 114.419 67.502 114.507 67.589L116.008 69.0033C116.15 69.1385 116.321 69.3365 116.413 69.4399L116.536 69.3837C116.523 69.3417 116.453 68.9948 116.444 68.789L116.29 66.6871C116.274 66.4963 116.29 66.405 116.425 66.3381L117.346 65.8688C117.394 65.845 117.439 65.8322 117.474 65.8322Z" fill="white"/>
<path d="M96.074 64.8989C96.1134 64.899 96.1651 64.919 96.2282 64.9591L99.2843 66.8975C99.4305 66.9889 99.4497 67.0525 99.3627 67.1877L98.9536 67.8308C98.886 67.9383 98.8351 67.9511 98.7994 67.9511L98.8033 67.9537C98.7638 67.9537 98.7112 67.9343 98.6517 67.8949L97.7458 67.3184L95.0165 71.6163C94.9414 71.7314 94.8941 71.7483 94.8584 71.7483C94.8228 71.7482 94.7792 71.7315 94.7237 71.696L93.8336 71.1326C93.6982 71.0449 93.6832 70.9734 93.7747 70.8307L96.5027 66.5315L95.5982 65.9564C95.451 65.865 95.4343 65.7932 95.5211 65.6544L95.9315 65.01C95.9947 64.9115 96.042 64.8989 96.074 64.8989Z" fill="white"/>
<path d="M120.763 62.9879C120.807 62.988 120.85 63.0175 120.906 63.0768L121.418 63.6402C121.473 63.6996 121.498 63.7518 121.498 63.7957C121.494 63.8387 121.461 63.8868 121.398 63.946L119.861 65.3447L120.806 66.3851L122.228 65.0898C122.292 65.0303 122.344 65.0022 122.388 65.0022C122.432 65.0024 122.475 65.0305 122.53 65.0898L123.011 65.6192C123.067 65.6784 123.091 65.7296 123.091 65.7734C123.087 65.8172 123.054 65.8643 122.99 65.9237L121.568 67.2191L122.645 68.4034L124.258 66.9367C124.322 66.8773 124.374 66.8505 124.418 66.8505C124.461 66.8506 124.505 66.8775 124.56 66.9367L124.549 66.942L125.061 67.5053C125.172 67.6286 125.168 67.7 125.041 67.8151L122.499 70.1275C122.443 70.1831 122.395 70.2072 122.351 70.2072C122.304 70.207 122.252 70.174 122.193 70.1065L118.125 65.6309C118.01 65.5038 118.014 65.4314 118.133 65.3198L120.604 63.0768C120.668 63.0173 120.719 62.9879 120.763 62.9879Z" fill="white"/>
<path fill-rule="evenodd" clip-rule="evenodd" d="M122.885 60.1004C122.924 60.1004 122.968 60.1042 123.019 60.1201L129.09 61.801C129.141 61.8166 129.204 61.8409 129.224 61.8847C129.239 61.9284 129.213 61.9913 129.185 62.035L128.616 62.9565C128.561 63.0478 128.497 63.0885 128.41 63.0886C128.37 63.0886 128.323 63.0793 128.267 63.0637L127.286 62.7696L126.38 64.2362L127.079 64.9826C127.203 65.1179 127.218 65.2138 127.138 65.3447L126.622 66.1825C126.594 66.23 126.55 66.2858 126.499 66.2858C126.463 66.2856 126.419 66.2577 126.372 66.2021L122.158 61.5187C122.034 61.3796 122.022 61.28 122.106 61.1409L122.657 60.2442C122.721 60.1447 122.789 60.1004 122.885 60.1004ZM123.596 61.5579L123.694 61.6376C123.968 61.86 124.811 62.5404 125.149 62.9056L125.581 63.3735L126.158 62.4402L125.554 62.2533C125.205 62.1462 124.545 61.8638 123.703 61.4586L123.67 61.4429L123.596 61.5579Z" fill="white"/>
<path fill-rule="evenodd" clip-rule="evenodd" d="M108.985 60.6377C110.057 60.2481 110.633 60.6206 110.82 61.1409L111.603 63.2872C111.793 63.8076 111.59 64.4626 110.518 64.8558C109.446 65.2454 108.877 64.8678 108.687 64.3473L107.909 62.2023C107.718 61.6826 107.912 61.0266 108.985 60.6377ZM109.947 61.6612C109.843 61.3836 109.561 61.3562 109.283 61.4586C109.005 61.5582 108.809 61.7608 108.913 62.0389L109.564 63.831C109.667 64.1091 109.942 64.1401 110.22 64.0375C110.498 63.9342 110.697 63.7313 110.598 63.4532L109.947 61.6612Z" fill="white"/>
<path d="M113.756 58.9371C113.875 58.8935 113.942 58.9172 113.99 59.0443L114.157 59.5162C114.204 59.6431 114.168 59.7116 114.05 59.7554L112.743 60.2312L113.027 61.0181L114.244 60.5762C114.363 60.5334 114.431 60.5578 114.478 60.6847L114.648 61.1566C114.692 61.2838 114.66 61.3519 114.541 61.3958L113.327 61.8363L113.878 63.35C113.926 63.477 113.906 63.544 113.787 63.5879L113.171 63.814C113.052 63.8577 112.985 63.819 112.941 63.6924L111.574 59.9371C111.527 59.8104 111.555 59.7388 111.673 59.6952L113.756 58.9371Z" fill="white"/>
<path fill-rule="evenodd" clip-rule="evenodd" d="M126.115 53.9909C126.257 53.987 126.397 54.0061 126.539 54.0458L127.358 54.2772C127.945 54.4441 128.315 54.909 128.402 55.5843L128.41 55.651L131.052 55.3778C131.111 55.3778 131.147 55.3892 131.167 55.417L131.163 55.4248C131.195 55.4685 131.202 55.5478 131.174 55.6392L130.889 56.6522C130.861 56.7595 130.782 56.771 130.642 56.7869L128.235 57.0378L128.005 57.8522L130.146 58.46C130.229 58.4838 130.281 58.5118 130.305 58.5476C130.325 58.5832 130.325 58.6348 130.305 58.7136L130.019 59.7266C129.979 59.8731 129.916 59.8899 129.865 59.89C129.833 59.89 129.796 59.8823 129.748 59.8704L123.929 58.2221C123.762 58.1744 123.727 58.1144 123.771 57.9554L124.342 55.9294C124.692 54.6939 125.32 54.0068 126.115 53.9909ZM126.213 55.4928C125.879 55.497 125.613 55.7744 125.478 56.247L125.248 57.0653L126.873 57.5267L127.103 56.7084C127.178 56.4502 127.186 56.2155 127.13 56.0287C127.067 55.8103 126.912 55.6596 126.69 55.5961L126.416 55.5203C126.349 55.5004 126.277 55.4928 126.213 55.4928Z" fill="white"/>
<path fill-rule="evenodd" clip-rule="evenodd" d="M138.638 47.4762H138.634L134.48 48.9898C135.457 60.7882 128.513 72.2527 116.855 76.4958C105.191 80.7381 92.5072 76.4196 85.6744 66.7551L81.3322 68.3354L80.8799 67.0923L138.186 46.2318L138.638 47.4762ZM86.9567 66.2858C93.5029 75.2761 105.434 79.2562 116.405 75.2593C127.381 71.2667 133.963 60.5489 133.2 49.4539L86.9567 66.2858Z" fill="white"/>
<path fill-rule="evenodd" clip-rule="evenodd" d="M85.9842 55.2458C87.1836 55.2458 87.6167 55.9527 87.7724 56.3738V56.366L88.1972 57.5306C88.6063 58.6546 87.8437 59.6872 86.1555 60.3031L85.2169 60.6442L86.0365 62.8964C86.108 63.0994 86.0751 63.1751 85.8927 63.2428L84.7215 63.6715C84.6657 63.6916 84.6172 63.7042 84.5778 63.7042C84.5101 63.7041 84.4383 63.6799 84.3752 63.5055L81.9243 56.7673C81.853 56.5728 81.8931 56.4858 82.0798 56.4183L84.4274 55.5634C85.0031 55.353 85.5275 55.2458 85.9842 55.2458ZM85.4875 56.7869C85.3134 56.7869 85.1187 56.8238 84.9163 56.8993L83.9778 57.2404L84.7333 59.3175L85.6705 58.9763C86.3296 58.7381 86.6201 58.3053 86.4457 57.8208L86.2509 57.2875C86.1355 56.9659 85.861 56.7869 85.4875 56.7869Z" fill="white"/>
<path fill-rule="evenodd" clip-rule="evenodd" d="M93.5081 52.5086C94.7071 52.5087 95.1399 53.2155 95.2949 53.6367L95.6413 54.583C95.8874 55.2662 95.6969 55.9498 95.1054 56.5058L95.0583 56.5464L97.1432 58.8809C97.1868 58.9323 97.2019 58.9838 97.1903 59.0312C97.1702 59.1027 97.0952 59.1666 96.9838 59.2064L95.8126 59.6351C95.7844 59.647 95.7565 59.6521 95.7328 59.6521C95.6413 59.6521 95.5733 59.5761 95.4936 59.4887L93.5917 57.3555L92.6624 57.6927L93.5591 60.1606C93.6303 60.3629 93.5995 60.438 93.4166 60.5057L92.2454 60.9344C92.1897 60.9544 92.1417 60.967 92.1016 60.9671C92.0347 60.9671 91.963 60.9428 91.899 60.7684L89.4481 54.0301C89.3769 53.8359 89.4162 53.7486 89.6024 53.6811L91.9513 52.8263C92.5272 52.6158 93.0512 52.5086 93.5081 52.5086ZM93.0035 54.0458C92.8287 54.0458 92.6341 54.0815 92.431 54.1569L91.4938 54.4994L92.1735 56.362L93.1107 56.0209C93.4091 55.9137 93.6395 55.7618 93.7787 55.5791L93.7747 55.5752C93.9366 55.3648 93.9734 55.1142 93.8819 54.8602L93.7656 54.5464C93.6501 54.225 93.3768 54.0459 93.0035 54.0458Z" fill="white"/>
<path fill-rule="evenodd" clip-rule="evenodd" d="M101.202 49.6133C102.41 49.6133 102.847 50.3164 102.998 50.7335L104.397 54.5791C104.523 54.9248 104.598 55.4529 104.245 56.0248C103.907 56.5728 103.263 57.0218 102.334 57.3594C101.754 57.5698 101.23 57.677 100.769 57.677C99.5659 57.677 99.1295 56.974 98.9784 56.5529L97.5798 52.7073C97.1751 51.5832 97.9412 50.5467 99.6333 49.931C100.209 49.7205 100.738 49.6134 101.202 49.6133ZM100.686 51.1505C100.511 51.1506 100.317 51.1862 100.114 51.2616C99.4589 51.4998 99.1765 51.9288 99.351 52.4132L100.523 55.6314C100.643 55.9609 100.905 56.1358 101.282 56.1359C101.456 56.1359 101.648 56.1003 101.85 56.0248C102.147 55.9176 102.378 55.7667 102.517 55.5843H102.514C102.676 55.3739 102.712 55.1233 102.621 54.8693L101.449 51.6511C101.334 51.3294 101.059 51.1505 100.686 51.1505Z" fill="white"/>
<path d="M92.2415 37.6321C92.2775 37.6322 92.3918 37.6325 92.4075 37.874L93.1029 46.3716C93.1229 46.6335 93.0553 46.7563 92.8532 46.8317L91.5853 47.2932C91.5259 47.313 91.4741 47.3245 91.4258 47.3245C91.307 47.3244 91.2079 47.257 91.0964 47.1023L86.1594 40.1549C86.1073 40.0913 86.0596 39.999 86.0797 39.9275C86.0955 39.876 86.152 39.8324 86.247 39.7968L87.6286 39.2922C87.6837 39.2723 87.7324 39.2648 87.7763 39.2648C87.8915 39.2649 87.9869 39.3322 88.0939 39.4909L90.2468 42.6568C90.6642 43.2748 91.2647 44.5487 91.2755 44.5717L91.4101 44.5247C91.4101 44.5087 91.077 43.1305 91.001 42.3836L90.6206 38.5733C90.5931 38.3151 90.6525 38.1965 90.8468 38.1249L92.1134 37.6635C92.1647 37.6436 92.2097 37.6361 92.2454 37.6361L92.2415 37.6321Z" fill="white"/>
<path fill-rule="evenodd" clip-rule="evenodd" d="M97.6229 35.8806C98.6006 35.8808 99.3434 36.369 99.6529 37.223L99.6568 37.2191L101.266 41.6281C101.409 42.0252 101.508 42.6331 101.159 43.2724C100.825 43.8802 100.169 44.3659 99.2124 44.7155C98.6602 44.9181 98.1466 45.0214 97.6896 45.0214C96.3556 45.0211 95.8472 44.1782 95.6649 43.6737L94.0558 39.2687C93.9092 38.8715 93.8092 38.2637 94.1551 37.6282C94.4848 37.0204 95.1398 36.536 96.0975 36.1865C96.6497 35.9838 97.1667 35.8806 97.6229 35.8806ZM97.2177 37.6204C97.0429 37.6204 96.8563 37.6562 96.6622 37.7276C95.9865 37.9739 95.7042 38.4499 95.9028 38.9981L97.2491 42.6855C97.3883 43.0667 97.6907 43.2763 98.0961 43.2763C98.2664 43.2763 98.4497 43.2406 98.6438 43.1692C99.3147 42.9229 99.6083 42.4348 99.4098 41.8947L98.0674 38.2073C97.9326 37.8263 97.6268 37.6204 97.2177 37.6204Z" fill="white"/>
<path d="M104.523 33.1591C104.595 33.1591 104.674 33.1868 104.742 33.3735L105.096 34.346C105.175 34.5644 105.131 34.664 104.917 34.7434L103.729 35.176V35.1813L106.092 41.6594C106.136 41.7786 106.144 41.8626 106.125 41.9222C106.108 41.9579 106.077 42.0131 105.942 42.0607L104.679 42.5221C104.619 42.542 104.567 42.5535 104.527 42.5535C104.456 42.5535 104.368 42.5257 104.293 42.3156L101.93 35.8362L100.738 36.2688C100.678 36.2927 100.622 36.3054 100.578 36.3054C100.503 36.3054 100.42 36.2764 100.348 36.078L99.9954 35.1055C99.9158 34.891 99.9593 34.7993 100.177 34.7199L104.356 33.1944C104.424 33.1706 104.479 33.1592 104.523 33.1591Z" fill="white"/>
<path d="M109.973 31.1488C110.049 31.1488 110.128 31.1726 110.195 31.3592L110.549 32.333C110.589 32.44 110.596 32.5232 110.569 32.5827C110.541 32.6422 110.47 32.6946 110.35 32.7382L108.19 33.5238L108.829 35.2806L110.791 34.5656C110.866 34.5379 110.926 34.5251 110.978 34.5251C111.053 34.5251 111.132 34.5493 111.2 34.7355L111.535 35.6492C111.574 35.7604 111.582 35.8445 111.55 35.9041C111.519 35.9636 111.447 36.0108 111.332 36.0544L109.369 36.7694L110.1 38.7759L112.388 37.9419C112.463 37.9141 112.523 37.9014 112.575 37.9014C112.65 37.9014 112.73 37.9304 112.797 38.1171V38.1119L113.152 39.0857C113.231 39.308 113.183 39.4114 112.953 39.4948L109.036 40.9209C108.968 40.9446 108.917 40.9574 108.87 40.9575C108.785 40.9575 108.702 40.9288 108.626 40.7222L105.81 32.984C105.726 32.7537 105.77 32.6465 105.993 32.567L109.787 31.188C109.862 31.1603 109.921 31.1488 109.973 31.1488Z" fill="white"/>
<path fill-rule="evenodd" clip-rule="evenodd" d="M116.273 29.1306C117.442 29.1306 117.856 29.8302 118.106 30.5135L119.643 34.7238C119.881 35.3793 119.885 35.8722 119.659 36.325C119.353 36.9248 118.633 37.4253 117.461 37.8544L115.141 38.7001C115.102 38.7119 115.066 38.7197 115.034 38.7197C114.966 38.7195 114.884 38.6916 114.805 38.4739L111.988 30.7553C111.905 30.529 111.948 30.4256 112.15 30.3501L114.422 29.5201C115.145 29.262 115.769 29.1307 116.273 29.1306ZM115.837 30.8625C115.65 30.8626 115.411 30.9186 115.09 31.0337L114.244 31.3435L116.154 36.5825L117.001 36.2727C117.498 36.0902 117.759 35.9235 117.867 35.7211V35.725C117.986 35.5026 117.911 35.2486 117.816 34.9865L116.544 31.4978C116.401 31.1047 116.23 30.8625 115.837 30.8625Z" fill="white"/>
<path fill-rule="evenodd" clip-rule="evenodd" d="M98.4412 25.9006C110.128 21.6501 122.836 25.9967 129.661 35.7015L133.803 34.1918L134.257 35.4349L76.9506 56.2954L76.4971 55.051L80.8276 53.4746C79.8184 41.6523 86.7584 30.1552 98.4412 25.9006ZM128.381 36.1616C121.842 27.1322 109.885 23.1277 98.8896 27.132C87.8938 31.1323 81.312 41.8863 82.106 53.0053L128.381 36.1616Z" fill="white"/>
<path fill-rule="evenodd" clip-rule="evenodd" d="M109.123 46.8278C110.331 46.8278 110.768 47.5308 110.919 47.948H110.923L112.258 51.6237C112.667 52.7478 111.896 53.7843 110.196 54.404L107.697 55.3137C107.658 55.3257 107.622 55.3333 107.594 55.3333C107.534 55.3333 107.463 55.3096 107.395 55.1268L104.944 48.3898C104.873 48.1953 104.912 48.1071 105.098 48.0395L107.555 47.1455C108.13 46.9351 108.659 46.8278 109.123 46.8278ZM108.611 48.3702C108.436 48.3703 108.24 48.4059 108.038 48.4813L106.994 48.8617L108.663 53.4511L109.707 53.0694C110.005 52.9621 110.236 52.8103 110.375 52.6276C110.538 52.4172 110.574 52.1705 110.483 51.9126L109.374 48.8696C109.259 48.548 108.984 48.3702 108.611 48.3702Z" fill="white"/>
<path d="M118.014 43.36C118.086 43.36 118.149 43.3958 118.209 43.5626L118.213 43.5508L120.14 48.8421C120.549 49.9663 119.777 51.004 118.077 51.6237C117.497 51.8341 116.973 51.9413 116.512 51.9413C115.31 51.9413 114.877 51.2384 114.722 50.8172L112.795 45.5246C112.724 45.3302 112.762 45.2431 112.949 45.1756L114.122 44.7508C114.173 44.731 114.221 44.7233 114.256 44.7233C114.328 44.7234 114.392 44.7594 114.451 44.9259L116.263 49.9035C116.382 50.2328 116.644 50.4081 117.021 50.4081C117.196 50.408 117.386 50.3711 117.589 50.2956C117.887 50.1884 118.117 50.0379 118.256 49.8551C118.419 49.6446 118.455 49.3944 118.363 49.1401L116.552 44.1626C116.48 43.9682 116.521 43.8811 116.707 43.8136L117.878 43.3875C117.93 43.3676 117.978 43.36 118.014 43.36Z" fill="white"/>
<path d="M124.632 41.0725C125.728 41.0725 126.185 41.6998 126.376 42.2241L126.559 42.7247C126.63 42.9271 126.598 43.0024 126.416 43.0698L125.296 43.479C125.24 43.4988 125.193 43.5116 125.152 43.5116C125.086 43.5116 125.014 43.4875 124.95 43.3129L124.882 43.126C124.759 42.7844 124.504 42.6058 124.147 42.6058C123.988 42.6059 123.814 42.6416 123.623 42.7091C123.334 42.8163 123.123 42.9591 123 43.1378C122.861 43.3364 122.84 43.571 122.936 43.8332L124.108 47.05C124.231 47.3916 124.485 47.5754 124.839 47.5755C124.993 47.5755 125.164 47.5396 125.355 47.4722C125.649 47.369 125.864 47.221 125.986 47.0422C126.125 46.8398 126.149 46.6061 126.054 46.3442L125.928 45.9939C125.892 45.8946 125.884 45.8233 125.908 45.7717C125.932 45.7201 125.987 45.6806 126.082 45.6449L127.203 45.2357C127.255 45.22 127.302 45.207 127.338 45.207C127.409 45.2072 127.473 45.2434 127.533 45.4096V45.4057L127.775 46.0697C127.902 46.4193 127.989 46.9517 127.675 47.4958C127.366 48.028 126.742 48.4692 125.82 48.8068C125.257 49.0133 124.748 49.1165 124.307 49.1166C123.211 49.1166 122.754 48.4881 122.563 47.9637L121.164 44.1194C121.038 43.7699 120.95 43.2375 121.264 42.6934C121.573 42.1612 122.197 41.72 123.119 41.3823C123.682 41.1757 124.192 41.0725 124.632 41.0725Z" fill="white"/>
<path d="M132.493 38.0883C132.557 38.0883 132.624 38.1125 132.68 38.2674L132.99 39.1131C133.026 39.2083 133.029 39.2759 133.006 39.3275C132.982 39.3752 132.922 39.4198 132.823 39.4556L131.365 39.9876L133.427 45.6527V45.6449C133.498 45.8471 133.467 45.9224 133.284 45.99L132.113 46.4187C132.057 46.4385 132.009 46.4513 131.969 46.4514C131.902 46.4514 131.831 46.4271 131.767 46.2527L129.705 40.5876L128.246 41.1196C128.183 41.1393 128.136 41.1509 128.092 41.1509C128.028 41.1509 127.957 41.1277 127.897 40.9653L127.588 40.1183C127.52 39.9359 127.556 39.8603 127.758 39.7889L132.334 38.1249C132.398 38.1011 132.449 38.0884 132.493 38.0883Z" fill="white"/>
<path fill-rule="evenodd" clip-rule="evenodd" d="M130.96 31.0612C131.302 30.9381 131.608 31.0176 131.731 31.3514V31.3592H131.735C131.818 31.5936 131.747 31.7928 131.599 31.9317L132.152 32.384L131.767 32.5226L131.278 32.1213L131.075 32.1932L131.262 32.7016L130.929 32.8245L130.364 31.2756L130.96 31.0612ZM131.052 31.371L130.808 31.4586L130.976 31.9187L131.219 31.8324C131.378 31.7728 131.444 31.6446 131.393 31.5017C131.337 31.3513 131.21 31.3115 131.052 31.371Z" fill="white"/>
<path fill-rule="evenodd" clip-rule="evenodd" d="M130.689 30.3658C131.539 30.056 132.41 30.4612 132.708 31.2834L132.723 31.3239C133.017 32.134 132.608 33.0152 131.767 33.3212C130.932 33.6231 130.062 33.2179 129.768 32.4075L129.747 32.3566C129.449 31.5461 129.856 30.6677 130.686 30.3658H130.689ZM132.41 31.3906C132.167 30.7235 131.48 30.3784 130.781 30.6325C130.102 30.8828 129.8 31.5939 130.039 32.2533L130.053 32.3004C130.296 32.9637 130.976 33.3139 131.667 33.0637C132.358 32.8095 132.668 32.0944 132.425 31.4272L132.421 31.4311L132.41 31.3906Z" fill="white"/>
<path d="M172.861 41.7103H169.522V47.9802C169.522 48.3569 169.414 48.5184 169.037 48.5184H167.394C167.044 48.5184 166.909 48.3569 166.909 47.9802V30.758C166.909 30.3813 167.044 30.2199 167.394 30.2199H172.861C177.493 30.2199 178.975 32.1573 178.975 34.3639V37.5662C178.975 39.7728 177.493 41.7103 172.861 41.7103ZM172.861 32.4534H169.522V39.4768H172.861C175.285 39.4768 176.362 38.5887 176.362 37.1356V34.7945C176.362 33.3414 175.285 32.4534 172.861 32.4534ZM184.959 47.9802C184.959 48.3569 184.852 48.5184 184.474 48.5184H182.832C182.482 48.5184 182.347 48.3569 182.347 47.9802V30.758C182.347 30.3813 182.482 30.2199 182.832 30.2199H188.299C192.931 30.2199 194.412 32.1573 194.412 34.3639V37.1625C194.412 38.7771 193.577 40.284 191.261 40.9299L194.493 47.9802C194.628 48.3031 194.385 48.5184 194.008 48.5184H192.231C191.935 48.5184 191.773 48.3569 191.611 47.9802L188.622 41.2797H184.959V47.9802ZM188.299 32.4534H184.959V39.0462H188.299C190.723 39.0462 191.8 38.1851 191.8 36.7051V34.7945C191.8 33.3414 190.723 32.4534 188.299 32.4534ZM197.936 44.5896V34.1487C197.936 31.9421 199.444 30.0046 204.05 30.0046C208.682 30.0046 210.19 31.9421 210.19 34.1487V44.5896C210.19 46.7962 208.682 48.7337 204.05 48.7337C199.444 48.7337 197.936 46.7962 197.936 44.5896ZM207.551 44.159V34.5792C207.551 33.1261 206.473 32.2381 204.05 32.2381C201.653 32.2381 200.575 33.1261 200.575 34.5792V44.159C200.575 45.6122 201.653 46.5002 204.05 46.5002C206.473 46.5002 207.551 45.6122 207.551 44.159ZM220.416 48.5184H214.733C214.41 48.5184 214.302 48.33 214.302 47.9802V30.758C214.302 30.3813 214.437 30.2199 214.787 30.2199H220.416C225.021 30.2199 226.556 32.1573 226.556 34.3639V44.3743C226.556 46.5809 225.021 48.5184 220.416 48.5184ZM220.416 32.4534H216.915V46.2849H220.416C222.84 46.2849 223.917 45.3969 223.917 43.9438V34.7945C223.917 33.3414 222.84 32.4534 220.416 32.4534ZM233.22 30.758V44.159C233.22 45.6122 234.297 46.5002 236.694 46.5002C239.118 46.5002 240.222 45.6122 240.222 44.159V30.758C240.222 30.3813 240.357 30.2199 240.707 30.2199H242.35C242.727 30.2199 242.835 30.3813 242.835 30.758V44.5896C242.835 46.7962 241.326 48.7337 236.694 48.7337C232.089 48.7337 230.581 46.7962 230.581 44.5896V30.758C230.581 30.3813 230.742 30.2199 231.092 30.2199H232.735C233.085 30.2199 233.22 30.3813 233.22 30.758ZM258.786 42.8943V44.5896C258.786 46.7962 257.466 48.7337 252.834 48.7337C248.202 48.7337 246.882 46.7962 246.882 44.5896V34.1487C246.882 31.9421 248.202 30.0046 252.834 30.0046C257.466 30.0046 258.786 31.9421 258.786 34.1487V35.4672C258.786 35.844 258.651 36.0054 258.301 36.0054H256.739C256.362 36.0054 256.227 35.844 256.227 35.4672V34.5792C256.227 33.1261 255.285 32.2381 252.861 32.2381C250.437 32.2381 249.521 33.1261 249.521 34.5792V44.159C249.521 45.6122 250.437 46.5002 252.861 46.5002C255.285 46.5002 256.227 45.6122 256.227 44.159V42.8943C256.227 42.5445 256.362 42.383 256.739 42.383H258.301C258.651 42.383 258.786 42.5445 258.786 42.8943ZM261.01 30.2199H272.268C272.618 30.2199 272.779 30.3544 272.779 30.7311V31.9421C272.779 32.3188 272.618 32.4534 272.268 32.4534H267.958V47.9802C267.958 48.3569 267.824 48.5184 267.474 48.5184H265.804C265.454 48.5184 265.319 48.3569 265.319 47.9802V32.4534H261.01C260.633 32.4534 260.498 32.3188 260.498 31.9421V30.7311C260.498 30.3544 260.633 30.2199 261.01 30.2199ZM280.494 44.5896V34.1487C280.494 31.9421 282.002 30.0046 286.607 30.0046C291.239 30.0046 292.747 31.9421 292.747 34.1487V44.5896C292.747 46.7962 291.239 48.7337 286.607 48.7337C282.002 48.7337 280.494 46.7962 280.494 44.5896ZM290.108 44.159V34.5792C290.108 33.1261 289.031 32.2381 286.607 32.2381C284.21 32.2381 283.133 33.1261 283.133 34.5792V44.159C283.133 45.6122 284.21 46.5002 286.607 46.5002C289.031 46.5002 290.108 45.6122 290.108 44.159ZM297.344 30.2199H307.228C307.578 30.2199 307.74 30.3544 307.74 30.7311V31.9421C307.74 32.3188 307.578 32.4534 307.228 32.4534H299.472V37.916H306.743C307.121 37.916 307.255 38.0506 307.255 38.4273V39.6651C307.255 40.015 307.121 40.1764 306.743 40.1764H299.472V47.9802C299.472 48.3569 299.364 48.5184 298.987 48.5184H297.344C296.994 48.5184 296.86 48.3569 296.86 47.9802V30.758C296.86 30.3813 296.994 30.2199 297.344 30.2199ZM315.162 30.2199H326.42C326.77 30.2199 326.931 30.3544 326.931 30.7311V31.9421C326.931 32.3188 326.77 32.4534 326.42 32.4534H322.111V47.9802C322.111 48.3569 321.976 48.5184 321.626 48.5184H319.956C319.606 48.5184 319.471 48.3569 319.471 47.9802V32.4534H315.162C314.785 32.4534 314.65 32.3188 314.65 31.9421V30.7311C314.65 30.3544 314.785 30.2199 315.162 30.2199ZM332.242 30.758V37.8353H339.244V30.758C339.244 30.3813 339.379 30.2199 339.729 30.2199H341.399C341.749 30.2199 341.883 30.3813 341.883 30.758V47.9802C341.883 48.3569 341.749 48.5184 341.399 48.5184H339.729C339.379 48.5184 339.244 48.3569 339.244 47.9802V40.0688H332.242V47.9802C332.242 48.3569 332.134 48.5184 331.757 48.5184H330.114C329.764 48.5184 329.63 48.3569 329.63 47.9802V30.758C329.63 30.3813 329.764 30.2199 330.114 30.2199H331.757C332.134 30.2199 332.242 30.3813 332.242 30.758ZM356.296 48.5184H346.789C346.439 48.5184 346.304 48.3569 346.304 47.9802V30.758C346.304 30.3813 346.439 30.2199 346.789 30.2199H356C356.35 30.2199 356.512 30.3544 356.512 30.7311V31.9421C356.512 32.3188 356.35 32.4534 356 32.4534H348.917V37.8891H355.515C355.892 37.8891 356.054 38.0236 356.054 38.4004V39.5575C356.054 39.9073 355.892 40.0688 355.515 40.0688H348.917V46.2849H356.296C356.646 46.2849 356.808 46.3925 356.808 46.7693V48.0071C356.808 48.3838 356.646 48.5184 356.296 48.5184ZM366.688 30.7311L370.055 37.8353C370.162 38.0775 370.351 38.5887 370.486 39.0462C370.593 38.6426 370.836 37.9967 370.917 37.8353L374.498 30.7311C374.633 30.462 374.741 30.2199 375.091 30.2199H376.734C377.084 30.2199 377.272 30.3813 377.084 30.7311L371.805 41.2528V48.0071C371.805 48.3569 371.671 48.5184 371.321 48.5184H369.678C369.301 48.5184 369.166 48.3569 369.166 48.0071V41.5488L363.834 30.7311C363.672 30.4082 363.834 30.2199 364.211 30.2199H366.069C366.419 30.2199 366.527 30.4082 366.688 30.7311ZM389.829 48.5184H380.322C379.972 48.5184 379.838 48.3569 379.838 47.9802V30.758C379.838 30.3813 379.972 30.2199 380.322 30.2199H389.533C389.883 30.2199 390.045 30.3544 390.045 30.7311V31.9421C390.045 32.3188 389.883 32.4534 389.533 32.4534H382.45V37.8891H389.048C389.425 37.8891 389.587 38.0236 389.587 38.4004V39.5575C389.587 39.9073 389.425 40.0688 389.048 40.0688H382.45V46.2849H389.829C390.179 46.2849 390.341 46.3925 390.341 46.7693V48.0071C390.341 48.3838 390.179 48.5184 389.829 48.5184ZM398.006 30.2199H399.675C400.026 30.2199 400.214 30.3813 400.322 30.7311L405.547 48.0071C405.654 48.33 405.52 48.5184 405.143 48.5184H403.446C403.096 48.5184 402.961 48.33 402.853 48.0071L401.588 43.8361H395.905L394.666 48.0071C394.558 48.33 394.424 48.5184 394.074 48.5184H392.512C392.161 48.5184 392.027 48.33 392.135 48.0071L397.359 30.7311C397.467 30.3813 397.656 30.2199 398.006 30.2199ZM401.022 41.7372L399.514 36.8396C399.298 36.14 398.894 33.9603 398.787 32.857C398.598 34.2025 398.302 35.9516 398.033 36.7858L396.497 41.7372H401.022ZM410.96 47.9802C410.96 48.3569 410.852 48.5184 410.475 48.5184H408.832C408.482 48.5184 408.347 48.3569 408.347 47.9802V30.758C408.347 30.3813 408.482 30.2199 408.832 30.2199H414.299C418.932 30.2199 420.413 32.1573 420.413 34.3639V37.1625C420.413 38.7771 419.578 40.284 417.262 40.9299L420.494 47.9802C420.628 48.3031 420.386 48.5184 420.009 48.5184H418.231C417.935 48.5184 417.773 48.3569 417.612 47.9802L414.622 41.2797H410.96V47.9802ZM414.299 32.4534H410.96V39.0462H414.299C416.723 39.0462 417.8 38.1851 417.8 36.7051V34.7945C417.8 33.3414 416.723 32.4534 414.299 32.4534ZM432.203 46.2849H440.39C440.74 46.2849 440.902 46.3925 440.902 46.7693V48.0071C440.902 48.3838 440.74 48.5184 440.39 48.5184H430.075C429.725 48.5184 429.564 48.3838 429.564 48.0071V43.4863C429.564 41.5219 430.776 40.7953 431.772 40.4186L436.835 38.5349C437.347 38.3466 438.209 37.916 438.209 36.7858V34.5523C438.209 33.0723 437.401 32.2112 435.004 32.2112C432.634 32.2112 431.826 33.0723 431.826 34.5523V35.7094C431.826 36.0861 431.691 36.2476 431.341 36.2476H429.779C429.402 36.2476 429.267 36.0861 429.267 35.7094V34.1487C429.267 31.9421 430.506 30.0046 435.004 30.0046C439.501 30.0046 440.821 31.9421 440.821 34.1487V36.732C440.821 39.1 439.286 40.0419 438.343 40.3917L433.765 42.0332C432.849 42.3561 432.203 42.5983 432.203 43.6747V46.2849ZM444.291 44.5896V34.1487C444.291 31.9421 445.638 30.0046 450.135 30.0046C454.633 30.0046 456.006 31.9421 456.006 34.1487V44.5896C456.006 46.7962 454.633 48.7337 450.135 48.7337C445.638 48.7337 444.291 46.7962 444.291 44.5896ZM453.367 44.159V34.5792C453.367 33.1261 452.532 32.2381 450.135 32.2381C447.738 32.2381 446.93 33.1261 446.93 34.5792V44.159C446.93 45.6122 447.738 46.5002 450.135 46.5002C452.532 46.5002 453.367 45.6122 453.367 44.159ZM462.343 46.2849H470.53C470.88 46.2849 471.042 46.3925 471.042 46.7693V48.0071C471.042 48.3838 470.88 48.5184 470.53 48.5184H460.215C459.865 48.5184 459.704 48.3838 459.704 48.0071V43.4863C459.704 41.5219 460.915 40.7953 461.912 40.4186L466.975 38.5349C467.487 38.3466 468.349 37.916 468.349 36.7858V34.5523C468.349 33.0723 467.541 32.2112 465.144 32.2112C462.774 32.2112 461.966 33.0723 461.966 34.5523V35.7094C461.966 36.0861 461.831 36.2476 461.481 36.2476H459.919C459.542 36.2476 459.407 36.0861 459.407 35.7094V34.1487C459.407 31.9421 460.646 30.0046 465.144 30.0046C469.641 30.0046 470.961 31.9421 470.961 34.1487V36.732C470.961 39.1 469.426 40.0419 468.483 40.3917L463.905 42.0332C462.989 42.3561 462.343 42.5983 462.343 43.6747V46.2849ZM475.104 30.2199H484.45C484.827 30.2199 484.988 30.3544 484.988 30.7311V31.9421C484.988 32.3188 484.827 32.4534 484.45 32.4534H477.259V37.0818H479.71C483.776 37.0818 485.473 38.7502 485.473 40.9837V44.6434C485.473 46.85 484.288 48.7606 479.763 48.7606C475.239 48.7606 474.054 46.85 474.054 44.6434V43.9438C474.054 43.567 474.189 43.4056 474.566 43.4056H476.128C476.478 43.4056 476.639 43.567 476.639 43.9438V44.2667C476.639 45.7467 477.367 46.5809 479.737 46.5809C482.133 46.5809 482.834 45.7467 482.834 44.2667V41.3604C482.834 40.1764 482.053 39.2615 479.683 39.2615H475.104C474.754 39.2615 474.62 39.1 474.62 38.7233V30.758C474.62 30.3813 474.754 30.2199 475.104 30.2199Z" fill="white"/>
<path d="M171.068 72.7071H167.183C166.987 72.7071 166.909 72.6095 166.909 72.4145V59.7347C166.909 59.5397 166.987 59.4421 167.183 59.4421H170.541C173.762 59.4421 174.758 60.6321 174.758 62.1732V63.4606C174.758 64.514 174.289 65.3333 173 65.7625C174.582 66.1136 175.304 66.9719 175.304 68.1619V69.898C175.304 71.4586 174.309 72.7071 171.068 72.7071ZM170.541 60.5931H168.276V65.3333H170.736C172.629 65.3333 173.391 64.5725 173.391 63.4411V62.3877C173.391 61.2368 172.61 60.5931 170.541 60.5931ZM171.068 66.4257H168.276V71.5561H171.068C173.157 71.5561 173.918 70.8149 173.918 69.6834V68.2399C173.918 67.167 173.157 66.4257 171.068 66.4257ZM184.949 65.4309V67.8303C184.949 68.0058 184.852 68.1034 184.676 68.1034H179.132V70.2687C179.132 71.166 179.6 71.7707 181.396 71.7707C183.192 71.7707 183.661 71.166 183.661 70.2687V69.937C183.661 69.742 183.739 69.6639 183.954 69.6639H184.657C184.852 69.6639 184.949 69.742 184.949 69.937V70.3467C184.949 71.8488 184.071 72.8631 181.377 72.8631C178.683 72.8631 177.823 71.8488 177.823 70.3467V65.4309C177.823 63.9288 178.722 62.9144 181.396 62.9144C184.071 62.9144 184.949 63.9288 184.949 65.4309ZM179.132 65.5089V67.0695H183.661V65.5089C183.661 64.6311 183.134 64.0068 181.396 64.0068C179.659 64.0068 179.132 64.6311 179.132 65.5089ZM192.897 65.704V65.1383C192.897 64.3775 192.194 63.9288 190.73 63.9288C189.285 63.9288 188.602 64.3775 188.602 65.1383V65.6454C188.602 66.2502 189.168 66.5818 189.578 66.7183L192.585 67.6937C193.561 68.0058 194.283 68.6301 194.283 69.5469V70.6588C194.283 71.8292 193.229 72.8631 190.73 72.8631C188.211 72.8631 187.196 71.8292 187.196 70.6588V70.1321C187.196 69.9566 187.274 69.859 187.45 69.859H188.192C188.368 69.859 188.446 69.9566 188.446 70.1321V70.6003C188.446 71.3806 189.227 71.8292 190.73 71.8292C192.214 71.8292 193.014 71.3806 193.014 70.6003V69.8785C193.014 69.2933 192.526 69.0007 191.882 68.7861L188.875 67.7912C188.192 67.5572 187.352 66.8744 187.352 65.899V65.1383C187.352 63.9678 188.251 62.9144 190.75 62.9144C193.209 62.9144 194.127 63.9678 194.127 65.1383V65.704C194.127 65.8795 194.068 65.9576 193.854 65.9576H193.151C192.975 65.9576 192.897 65.8795 192.897 65.704ZM198.67 63.1095H200.857C201.052 63.1095 201.15 63.1875 201.15 63.3826V63.9288C201.15 64.1239 201.052 64.2214 200.857 64.2214H198.67V70.0541C198.67 71.0295 199.1 71.5561 200.915 71.5561H201.267C201.462 71.5561 201.56 71.6342 201.56 71.8488V72.4145C201.56 72.629 201.462 72.7071 201.267 72.7071H200.74C198.065 72.7071 197.304 71.7707 197.304 70.1906V64.2214H196.132C195.917 64.2214 195.839 64.1239 195.839 63.9288V63.4606C195.839 63.2656 195.917 63.1875 196.132 63.168L197.147 63.1095H197.304V61.0417C197.304 60.8467 197.401 60.7491 197.596 60.7491H198.397C198.592 60.7491 198.67 60.8467 198.67 61.0417V63.1095ZM218.655 59.7347V72.4145C218.655 72.6095 218.577 72.7071 218.381 72.7071H217.581C217.386 72.7071 217.308 72.6095 217.308 72.4145V62.3487C217.171 62.7389 217.034 63.2461 216.898 63.5582L214.067 70.3857C213.989 70.6003 213.872 70.6978 213.696 70.6978H212.954C212.759 70.6978 212.661 70.5808 212.583 70.3857L209.635 63.3826C209.557 63.207 209.42 62.7974 209.303 62.3682V72.4145C209.303 72.6095 209.225 72.7071 209.03 72.7071H208.288C208.093 72.7071 208.015 72.6095 208.015 72.4145V59.7347C208.015 59.5397 208.093 59.4421 208.288 59.4421H209.03C209.166 59.4421 209.245 59.5007 209.303 59.6177L212.973 68.2204C213.091 68.474 213.208 68.8641 213.325 69.2348C213.423 68.9032 213.598 68.474 213.696 68.2204L217.308 59.5787C217.347 59.4812 217.444 59.4421 217.581 59.4421H218.381C218.577 59.4421 218.655 59.5397 218.655 59.7347ZM221.673 65.7235V65.3919C221.673 63.9288 222.571 62.9144 225.187 62.9144C227.862 62.9144 228.701 63.9288 228.701 65.3919V72.4145C228.701 72.6095 228.623 72.7071 228.428 72.7071H227.744C227.53 72.7071 227.471 72.6095 227.452 72.4145L227.413 71.7122C226.846 72.1609 225.734 72.8631 224.191 72.8631C222.356 72.8631 221.477 71.8292 221.477 70.5613V69.5859C221.477 68.3179 222.337 67.2841 224.016 67.2841H227.373V65.5284C227.373 64.6506 226.924 64.0263 225.167 64.0263C223.43 64.0263 222.942 64.6116 222.942 65.4894V65.7235C222.942 65.9381 222.864 66.0356 222.649 66.0356H221.946C221.751 66.0356 221.673 65.9381 221.673 65.7235ZM224.504 71.7317C225.909 71.7317 226.924 70.9904 227.373 70.6393V68.357H224.289C223.215 68.357 222.805 68.9032 222.805 69.7615V70.3857C222.805 71.244 223.313 71.7317 224.504 71.7317ZM233.484 63.1095H235.671C235.866 63.1095 235.964 63.1875 235.964 63.3826V63.9288C235.964 64.1239 235.866 64.2214 235.671 64.2214H233.484V70.0541C233.484 71.0295 233.914 71.5561 235.729 71.5561H236.081C236.276 71.5561 236.374 71.6342 236.374 71.8488V72.4145C236.374 72.629 236.276 72.7071 236.081 72.7071H235.554C232.879 72.7071 232.118 71.7707 232.118 70.1906V64.2214H230.946C230.731 64.2214 230.653 64.1239 230.653 63.9288V63.4606C230.653 63.2656 230.731 63.1875 230.946 63.168L231.961 63.1095H232.118V61.0417C232.118 60.8467 232.215 60.7491 232.411 60.7491H233.211C233.406 60.7491 233.484 60.8467 233.484 61.0417V63.1095ZM240.005 63.1095H242.192C242.387 63.1095 242.485 63.1875 242.485 63.3826V63.9288C242.485 64.1239 242.387 64.2214 242.192 64.2214H240.005V70.0541C240.005 71.0295 240.435 71.5561 242.25 71.5561H242.602C242.797 71.5561 242.895 71.6342 242.895 71.8488V72.4145C242.895 72.629 242.797 72.7071 242.602 72.7071H242.075C239.4 72.7071 238.638 71.7707 238.638 70.1906V64.2214H237.467C237.252 64.2214 237.174 64.1239 237.174 63.9288V63.4606C237.174 63.2656 237.252 63.1875 237.467 63.168L238.482 63.1095H238.638V61.0417C238.638 60.8467 238.736 60.7491 238.931 60.7491H239.732C239.927 60.7491 240.005 60.8467 240.005 61.0417V63.1095ZM249.258 62.9144C249.453 62.9144 249.551 63.012 249.551 63.207V63.8508C249.551 64.0458 249.453 64.1434 249.258 64.1434C247.814 64.2019 246.545 65.0602 246.076 65.4504V72.4145C246.076 72.6095 245.998 72.7071 245.803 72.7071H245.002C244.807 72.7071 244.729 72.6095 244.729 72.4145V63.3631C244.729 63.168 244.807 63.0705 245.002 63.0705H245.725C245.92 63.0705 245.978 63.168 245.998 63.3631L246.056 64.319C246.603 63.8118 247.814 62.9144 249.258 62.9144ZM258.142 65.4309V67.8303C258.142 68.0058 258.045 68.1034 257.869 68.1034H252.324V70.2687C252.324 71.166 252.793 71.7707 254.589 71.7707C256.385 71.7707 256.854 71.166 256.854 70.2687V69.937C256.854 69.742 256.932 69.6639 257.146 69.6639H257.849C258.045 69.6639 258.142 69.742 258.142 69.937V70.3467C258.142 71.8488 257.264 72.8631 254.569 72.8631C251.875 72.8631 251.016 71.8488 251.016 70.3467V65.4309C251.016 63.9288 251.914 62.9144 254.589 62.9144C257.264 62.9144 258.142 63.9288 258.142 65.4309ZM252.324 65.5089V67.0695H256.854V65.5089C256.854 64.6311 256.326 64.0068 254.589 64.0068C252.851 64.0068 252.324 64.6311 252.324 65.5089ZM266.091 65.704V65.1383C266.091 64.3775 265.388 63.9288 263.923 63.9288C262.479 63.9288 261.795 64.3775 261.795 65.1383V65.6454C261.795 66.2502 262.362 66.5818 262.772 66.7183L265.778 67.6937C266.754 68.0058 267.477 68.6301 267.477 69.5469V70.6588C267.477 71.8292 266.422 72.8631 263.923 72.8631C261.405 72.8631 260.39 71.8292 260.39 70.6588V70.1321C260.39 69.9566 260.468 69.859 260.644 69.859H261.385C261.561 69.859 261.639 69.9566 261.639 70.1321V70.6003C261.639 71.3806 262.42 71.8292 263.923 71.8292C265.407 71.8292 266.208 71.3806 266.208 70.6003V69.8785C266.208 69.2933 265.72 69.0007 265.075 68.7861L262.069 67.7912C261.385 67.5572 260.546 66.8744 260.546 65.899V65.1383C260.546 63.9678 261.444 62.9144 263.943 62.9144C266.403 62.9144 267.321 63.9678 267.321 65.1383V65.704C267.321 65.8795 267.262 65.9576 267.047 65.9576H266.344C266.169 65.9576 266.091 65.8795 266.091 65.704ZM275.28 65.704V65.1383C275.28 64.3775 274.577 63.9288 273.113 63.9288C271.669 63.9288 270.985 64.3775 270.985 65.1383V65.6454C270.985 66.2502 271.551 66.5818 271.961 66.7183L274.968 67.6937C275.944 68.0058 276.666 68.6301 276.666 69.5469V70.6588C276.666 71.8292 275.612 72.8631 273.113 72.8631C270.595 72.8631 269.58 71.8292 269.58 70.6588V70.1321C269.58 69.9566 269.658 69.859 269.833 69.859H270.575C270.751 69.859 270.829 69.9566 270.829 70.1321V70.6003C270.829 71.3806 271.61 71.8292 273.113 71.8292C274.597 71.8292 275.397 71.3806 275.397 70.6003V69.8785C275.397 69.2933 274.909 69.0007 274.265 68.7861L271.259 67.7912C270.575 67.5572 269.736 66.8744 269.736 65.899V65.1383C269.736 63.9678 270.634 62.9144 273.133 62.9144C275.593 62.9144 276.51 63.9678 276.51 65.1383V65.704C276.51 65.8795 276.452 65.9576 276.237 65.9576H275.534C275.358 65.9576 275.28 65.8795 275.28 65.704Z" fill="white"/>
<path d="M169.75 86.0092V85.5597C169.75 84.8736 169.359 84.436 168.128 84.436C166.885 84.436 166.494 84.8736 166.494 85.5597V85.9145C166.494 86.4941 166.885 86.7189 167.181 86.8372L169.406 87.677C170.046 87.9136 170.638 88.3867 170.638 89.2147V90.232C170.638 91.1783 170.022 91.959 168.104 91.959C166.186 91.959 165.571 91.1783 165.571 90.232V89.5814C165.571 89.4513 165.618 89.404 165.737 89.404H166.222C166.34 89.404 166.388 89.4513 166.388 89.5814V90.1255C166.388 90.8116 166.838 91.2493 168.092 91.2493C169.359 91.2493 169.809 90.8116 169.809 90.1255V89.3922C169.809 88.7771 169.288 88.5287 168.826 88.3512L166.707 87.5351C166.21 87.3458 165.677 86.849 165.677 86.1156V85.4532C165.677 84.5069 166.234 83.7263 168.116 83.7263C169.998 83.7263 170.578 84.5069 170.578 85.4532V86.0092C170.578 86.1275 170.531 86.1866 170.401 86.1866H169.915C169.797 86.1866 169.75 86.1275 169.75 86.0092ZM175.89 91.6869L175.867 91.2611C175.547 91.5332 174.92 91.959 173.925 91.959C172.824 91.959 172.28 91.3557 172.28 90.5159V86.1984C172.28 86.0801 172.327 86.021 172.445 86.021H172.931C173.049 86.021 173.097 86.0801 173.097 86.1984V90.3266C173.097 90.8707 173.393 91.2256 174.15 91.2256C175.014 91.2256 175.594 90.7879 175.855 90.575V86.1984C175.855 86.0801 175.902 86.021 176.021 86.021H176.506C176.624 86.021 176.672 86.0801 176.672 86.1984V91.6869C176.672 91.817 176.624 91.8643 176.506 91.8643H176.068C175.938 91.8643 175.902 91.817 175.89 91.6869ZM181.27 85.9264C181.389 85.9264 181.448 85.9855 181.448 86.1038V86.4942C181.448 86.6124 181.389 86.6716 181.27 86.6716C180.394 86.7071 179.625 87.2275 179.34 87.4641V91.6869C179.34 91.8052 179.293 91.8643 179.175 91.8643H178.689C178.571 91.8643 178.524 91.8052 178.524 91.6869V86.1984C178.524 86.0801 178.571 86.021 178.689 86.021H179.127C179.246 86.021 179.281 86.0801 179.293 86.1984L179.329 86.778C179.66 86.4705 180.394 85.9264 181.27 85.9264ZM184.57 91.8643H184.026C183.908 91.8643 183.872 91.817 183.837 91.6987L181.978 86.1984C181.942 86.092 182.002 86.021 182.12 86.021H182.629C182.747 86.021 182.795 86.092 182.83 86.1984L184.156 90.1137C184.239 90.3739 184.298 90.7288 184.322 90.8471C184.346 90.7051 184.417 90.3739 184.499 90.1255L185.861 86.1984C185.896 86.092 185.944 86.021 186.05 86.021H186.512C186.63 86.021 186.701 86.092 186.666 86.1984L184.748 91.6987C184.713 91.817 184.677 91.8643 184.57 91.8643ZM192.021 87.4523V88.9072C192.021 89.0136 191.962 89.0728 191.855 89.0728H188.493V90.3858C188.493 90.9299 188.777 91.2966 189.866 91.2966C190.956 91.2966 191.24 90.9299 191.24 90.3858V90.1847C191.24 90.0664 191.287 90.0191 191.417 90.0191H191.843C191.962 90.0191 192.021 90.0664 192.021 90.1847V90.4331C192.021 91.3439 191.488 91.959 189.855 91.959C188.221 91.959 187.7 91.3439 187.7 90.4331V87.4523C187.7 86.5415 188.245 85.9264 189.866 85.9264C191.488 85.9264 192.021 86.5415 192.021 87.4523ZM188.493 87.4996V88.4459H191.24V87.4996C191.24 86.9673 190.92 86.5888 189.866 86.5888C188.813 86.5888 188.493 86.9673 188.493 87.4996ZM193.801 86.1984L195.139 90.1374C195.198 90.3148 195.269 90.646 195.304 90.8353C195.352 90.5987 195.423 90.3385 195.482 90.1492L196.843 86.1984C196.879 86.0801 196.926 86.021 197.045 86.021H197.495C197.613 86.021 197.672 86.092 197.637 86.1984L194.926 94.1354C194.902 94.2182 194.843 94.301 194.736 94.301H194.369C194.239 94.301 194.18 94.2419 194.215 94.1354L194.937 91.9117L192.96 86.1984C192.925 86.092 192.984 86.021 193.103 86.021H193.6C193.706 86.021 193.765 86.092 193.801 86.1984ZM201.354 90.4331V87.4523C201.354 86.5415 201.958 85.9264 203.579 85.9264C205.201 85.9264 205.817 86.5415 205.817 87.4523V90.4331C205.817 91.3439 205.201 91.959 203.579 91.959C201.958 91.959 201.354 91.3439 201.354 90.4331ZM205 90.3739V87.5114C205 86.9555 204.633 86.6006 203.579 86.6006C202.538 86.6006 202.171 86.9555 202.171 87.5114V90.3739C202.171 90.9299 202.538 91.2848 203.579 91.2848C204.633 91.2848 205 90.9299 205 90.3739ZM207.754 86.0447H207.849V85.0274C207.849 84.1284 208.429 83.5133 210.063 83.5133H210.134C210.252 83.5133 210.311 83.5607 210.311 83.6789V84.0338C210.311 84.1521 210.252 84.2112 210.134 84.2112H210.063C209.009 84.2112 208.678 84.5661 208.678 85.1102V86.0447H209.968C210.086 86.0447 210.134 86.092 210.134 86.2103V86.5415C210.134 86.6598 210.086 86.7189 209.968 86.7189H208.678V91.6869C208.678 91.8052 208.63 91.8643 208.5 91.8643H208.026C207.908 91.8643 207.849 91.8052 207.849 91.6869V86.7189H207.103C206.985 86.7189 206.937 86.6598 206.937 86.5415V86.2576C206.937 86.1393 206.985 86.092 207.103 86.0801L207.754 86.0447ZM215.913 83.9983L214.256 88.5996H217.417V83.9983C217.417 83.88 217.464 83.8209 217.594 83.8209H218.092C218.21 83.8209 218.257 83.88 218.257 83.9983V91.6869C218.257 91.8052 218.21 91.8643 218.092 91.8643H217.594C217.464 91.8643 217.417 91.8052 217.417 91.6869V89.3212H213.558C213.439 89.3212 213.38 89.2739 213.38 89.1438V88.8007C213.38 88.7179 213.392 88.6824 213.415 88.6115L215.073 83.9983C215.12 83.88 215.168 83.8209 215.286 83.8209H215.795C215.913 83.8209 215.949 83.8918 215.913 83.9983ZM220.108 90.232V85.4532C220.108 84.5069 220.628 83.7263 222.534 83.7263C224.452 83.7263 224.985 84.5069 224.985 85.4532V90.232C224.985 91.1783 224.452 91.959 222.534 91.959C220.628 91.959 220.108 91.1783 220.108 90.232ZM224.144 90.1019V85.5833C224.144 84.8973 223.789 84.4478 222.534 84.4478C221.291 84.4478 220.948 84.8973 220.948 85.5833V90.1019C220.948 90.7879 221.291 91.2374 222.534 91.2374C223.789 91.2374 224.144 90.7879 224.144 90.1019ZM226.661 91.4858V90.7643C226.661 90.646 226.708 90.5869 226.827 90.5869H227.336C227.454 90.5869 227.501 90.646 227.501 90.7643V91.5213C227.501 92.2192 227.123 92.7278 226.306 92.9644C226.199 92.9999 226.14 92.9762 226.093 92.858L225.974 92.5149C225.927 92.3966 225.962 92.3375 226.081 92.2902C226.531 92.1009 226.661 91.8525 226.661 91.4858ZM229.217 90.232V85.4532C229.217 84.5069 229.738 83.7263 231.644 83.7263C233.562 83.7263 234.094 84.5069 234.094 85.4532V90.232C234.094 91.1783 233.562 91.959 231.644 91.959C229.738 91.959 229.217 91.1783 229.217 90.232ZM233.254 90.1019V85.5833C233.254 84.8973 232.899 84.4478 231.644 84.4478C230.401 84.4478 230.058 84.8973 230.058 85.5833V90.1019C230.058 90.7879 230.401 91.2374 231.644 91.2374C232.899 91.2374 233.254 90.7879 233.254 90.1019ZM235.9 90.232V85.4532C235.9 84.5069 236.421 83.7263 238.327 83.7263C240.245 83.7263 240.777 84.5069 240.777 85.4532V90.232C240.777 91.1783 240.245 91.959 238.327 91.959C236.421 91.959 235.9 91.1783 235.9 90.232ZM239.937 90.1019V85.5833C239.937 84.8973 239.582 84.4478 238.327 84.4478C237.084 84.4478 236.74 84.8973 236.74 85.5833V90.1019C236.74 90.7879 237.084 91.2374 238.327 91.2374C239.582 91.2374 239.937 90.7879 239.937 90.1019ZM242.582 90.232V85.4532C242.582 84.5069 243.103 83.7263 245.009 83.7263C246.926 83.7263 247.459 84.5069 247.459 85.4532V90.232C247.459 91.1783 246.926 91.959 245.009 91.959C243.103 91.959 242.582 91.1783 242.582 90.232ZM246.619 90.1019V85.5833C246.619 84.8973 246.263 84.4478 245.009 84.4478C243.766 84.4478 243.422 84.8973 243.422 85.5833V90.1019C243.422 90.7879 243.766 91.2374 245.009 91.2374C246.263 91.2374 246.619 90.7879 246.619 90.1019ZM252.101 86.021H252.539C252.657 86.021 252.693 86.0801 252.704 86.1984L252.728 86.6479C253.071 86.3759 253.734 85.9264 254.752 85.9264C255.889 85.9264 256.398 86.5415 256.398 87.4404V90.4449C256.398 91.3439 255.889 91.959 254.752 91.959C253.77 91.959 253.095 91.5331 252.752 91.2729V94.1354C252.752 94.2537 252.704 94.301 252.586 94.301H252.101C251.982 94.301 251.935 94.2537 251.935 94.1354V86.1984C251.935 86.0801 251.982 86.021 252.101 86.021ZM255.569 90.3266V87.5587C255.569 87.0738 255.297 86.6716 254.527 86.6716C253.64 86.6716 253.012 87.1329 252.752 87.3458V90.5514C253.012 90.7525 253.64 91.2138 254.527 91.2138C255.297 91.2138 255.569 90.8116 255.569 90.3266ZM262.358 87.4523V88.9072C262.358 89.0136 262.298 89.0728 262.192 89.0728H258.83V90.3858C258.83 90.9299 259.114 91.2966 260.203 91.2966C261.292 91.2966 261.576 90.9299 261.576 90.3858V90.1847C261.576 90.0664 261.624 90.0191 261.754 90.0191H262.18C262.298 90.0191 262.358 90.0664 262.358 90.1847V90.4331C262.358 91.3439 261.825 91.959 260.191 91.959C258.558 91.959 258.037 91.3439 258.037 90.4331V87.4523C258.037 86.5415 258.581 85.9264 260.203 85.9264C261.825 85.9264 262.358 86.5415 262.358 87.4523ZM258.83 87.4996V88.4459H261.576V87.4996C261.576 86.9673 261.257 86.5888 260.203 86.5888C259.149 86.5888 258.83 86.9673 258.83 87.4996ZM263.897 90.4331V87.4523C263.897 86.5415 264.501 85.9264 266.123 85.9264C267.745 85.9264 268.361 86.5415 268.361 87.4523V90.4331C268.361 91.3439 267.745 91.959 266.123 91.959C264.501 91.959 263.897 91.3439 263.897 90.4331ZM267.544 90.3739V87.5114C267.544 86.9555 267.177 86.6006 266.123 86.6006C265.081 86.6006 264.714 86.9555 264.714 87.5114V90.3739C264.714 90.9299 265.081 91.2848 266.123 91.2848C267.177 91.2848 267.544 90.9299 267.544 90.3739ZM270.251 86.021H270.689C270.808 86.021 270.843 86.0801 270.855 86.1984L270.879 86.6479C271.222 86.3759 271.885 85.9264 272.903 85.9264C274.04 85.9264 274.549 86.5415 274.549 87.4404V90.4449C274.549 91.3439 274.04 91.959 272.903 91.959C271.921 91.959 271.246 91.5331 270.902 91.2729V94.1354C270.902 94.2537 270.855 94.301 270.737 94.301H270.251C270.133 94.301 270.086 94.2537 270.086 94.1354V86.1984C270.086 86.0801 270.133 86.021 270.251 86.021ZM273.72 90.3266V87.5587C273.72 87.0738 273.448 86.6716 272.678 86.6716C271.79 86.6716 271.163 87.1329 270.902 87.3458V90.5514C271.163 90.7525 271.79 91.2138 272.678 91.2138C273.448 91.2138 273.72 90.8116 273.72 90.3266ZM277.111 83.7736V91.6869C277.111 91.8052 277.063 91.8643 276.945 91.8643H276.46C276.341 91.8643 276.294 91.8052 276.294 91.6869V83.7736C276.294 83.6553 276.341 83.5961 276.46 83.5961H276.945C277.063 83.5961 277.111 83.6553 277.111 83.7736ZM283.156 87.4523V88.9072C283.156 89.0136 283.097 89.0728 282.99 89.0728H279.628V90.3858C279.628 90.9299 279.912 91.2966 281.001 91.2966C282.091 91.2966 282.375 90.9299 282.375 90.3858V90.1847C282.375 90.0664 282.422 90.0191 282.552 90.0191H282.978C283.097 90.0191 283.156 90.0664 283.156 90.1847V90.4331C283.156 91.3439 282.623 91.959 280.99 91.959C279.356 91.959 278.835 91.3439 278.835 90.4331V87.4523C278.835 86.5415 279.38 85.9264 281.001 85.9264C282.623 85.9264 283.156 86.5415 283.156 87.4523ZM279.628 87.4996V88.4459H282.375V87.4996C282.375 86.9673 282.055 86.5888 281.001 86.5888C279.948 86.5888 279.628 86.9673 279.628 87.4996ZM288.065 91.8643H287.627C287.509 91.8643 287.462 91.8052 287.462 91.6869V83.7736C287.462 83.6553 287.509 83.5961 287.627 83.5961H288.113C288.231 83.5961 288.279 83.6553 288.279 83.7736V86.6243C288.622 86.364 289.285 85.9264 290.279 85.9264C291.416 85.9264 291.925 86.5415 291.925 87.4404V90.4449C291.925 91.3439 291.416 91.959 290.279 91.959C289.261 91.959 288.598 91.5213 288.255 91.2493L288.231 91.6869C288.219 91.8052 288.184 91.8643 288.065 91.8643ZM291.096 90.3266V87.5587C291.096 87.0738 290.824 86.6716 290.054 86.6716C289.166 86.6716 288.539 87.1329 288.279 87.3458V90.5514C288.539 90.7525 289.166 91.2138 290.054 91.2138C290.824 91.2138 291.096 90.8116 291.096 90.3266ZM293.849 86.1984L295.186 90.1374C295.245 90.3148 295.316 90.646 295.352 90.8353C295.399 90.5987 295.47 90.3385 295.53 90.1492L296.891 86.1984C296.926 86.0801 296.974 86.021 297.092 86.021H297.542C297.66 86.021 297.72 86.092 297.684 86.1984L294.973 94.1354C294.949 94.2182 294.89 94.301 294.784 94.301H294.417C294.287 94.301 294.227 94.2419 294.263 94.1354L294.985 91.9117L293.008 86.1984C292.972 86.092 293.032 86.021 293.15 86.021H293.647C293.754 86.021 293.813 86.092 293.849 86.1984ZM303.58 87.7835L306.859 91.6869C306.93 91.7697 306.894 91.8643 306.776 91.8643H306.066C305.935 91.8643 305.876 91.7816 305.793 91.6869L302.846 88.162H302.514V91.6869C302.514 91.8052 302.467 91.8643 302.337 91.8643H301.839C301.721 91.8643 301.674 91.8052 301.674 91.6869V83.9983C301.674 83.88 301.721 83.8209 301.839 83.8209H302.337C302.467 83.8209 302.514 83.88 302.514 83.9983V87.5232H302.834L305.545 83.9865C305.616 83.9037 305.722 83.8209 305.841 83.8209H306.445C306.563 83.8209 306.598 83.9037 306.527 83.9983L303.58 87.7835ZM307.736 87.6297V87.4286C307.736 86.5415 308.28 85.9264 309.867 85.9264C311.488 85.9264 311.998 86.5415 311.998 87.4286V91.6869C311.998 91.8052 311.95 91.8643 311.832 91.8643H311.417C311.287 91.8643 311.252 91.8052 311.24 91.6869L311.216 91.2611C310.873 91.5332 310.198 91.959 309.263 91.959C308.15 91.959 307.617 91.3321 307.617 90.5632V89.9718C307.617 89.2029 308.138 88.576 309.156 88.576H311.193V87.5114C311.193 86.9791 310.92 86.6006 309.855 86.6006C308.801 86.6006 308.505 86.9555 308.505 87.4878V87.6297C308.505 87.7598 308.458 87.819 308.328 87.819H307.901C307.783 87.819 307.736 87.7598 307.736 87.6297ZM309.452 91.2729C310.305 91.2729 310.92 90.8234 311.193 90.6105V89.2266H309.322C308.671 89.2266 308.422 89.5578 308.422 90.0782V90.4567C308.422 90.9772 308.73 91.2729 309.452 91.2729ZM313.975 86.021H314.413C314.531 86.021 314.566 86.0801 314.578 86.1984L314.602 86.6479C314.945 86.364 315.62 85.9264 316.626 85.9264C317.727 85.9264 318.272 86.5415 318.272 87.3813V91.6869C318.272 91.8052 318.224 91.8643 318.106 91.8643H317.621C317.502 91.8643 317.443 91.8052 317.443 91.6869V87.5587C317.443 87.0264 317.159 86.6598 316.401 86.6598C315.525 86.6598 314.886 87.1092 314.626 87.3222V91.6869C314.626 91.8052 314.578 91.8643 314.46 91.8643H313.975C313.856 91.8643 313.809 91.8052 313.809 91.6869V86.1984C313.809 86.0801 313.856 86.021 313.975 86.021ZM321.176 86.0447H322.502C322.62 86.0447 322.679 86.092 322.679 86.2103V86.5415C322.679 86.6598 322.62 86.7189 322.502 86.7189H321.176V90.2557C321.176 90.8471 321.436 91.1665 322.537 91.1665H322.75C322.868 91.1665 322.928 91.2138 322.928 91.3439V91.6869C322.928 91.817 322.868 91.8643 322.75 91.8643H322.43C320.809 91.8643 320.347 91.2966 320.347 90.3385V86.7189H319.637C319.506 86.7189 319.459 86.6598 319.459 86.5415V86.2576C319.459 86.1393 319.506 86.092 319.637 86.0801L320.252 86.0447H320.347V84.7908C320.347 84.6725 320.406 84.6134 320.525 84.6134H321.01C321.128 84.6134 321.176 84.6725 321.176 84.7908V86.0447ZM323.887 87.6297V87.4286C323.887 86.5415 324.431 85.9264 326.018 85.9264C327.639 85.9264 328.148 86.5415 328.148 87.4286V91.6869C328.148 91.8052 328.101 91.8643 327.983 91.8643H327.568C327.438 91.8643 327.403 91.8052 327.391 91.6869L327.367 91.2611C327.024 91.5332 326.349 91.959 325.414 91.959C324.301 91.959 323.768 91.3321 323.768 90.5632V89.9718C323.768 89.2029 324.289 88.576 325.307 88.576H327.343V87.5114C327.343 86.9791 327.071 86.6006 326.006 86.6006C324.952 86.6006 324.656 86.9555 324.656 87.4878V87.6297C324.656 87.7598 324.609 87.819 324.479 87.819H324.052C323.934 87.819 323.887 87.7598 323.887 87.6297ZM325.603 91.2729C326.456 91.2729 327.071 90.8234 327.343 90.6105V89.2266H325.473C324.822 89.2266 324.573 89.5578 324.573 90.0782V90.4567C324.573 90.9772 324.881 91.2729 325.603 91.2729ZM332.706 85.9264C332.825 85.9264 332.884 85.9855 332.884 86.1038V86.4942C332.884 86.6124 332.825 86.6716 332.706 86.6716C331.83 86.7071 331.061 87.2275 330.777 87.4641V91.6869C330.777 91.8052 330.729 91.8643 330.611 91.8643H330.125C330.007 91.8643 329.96 91.8052 329.96 91.6869V86.1984C329.96 86.0801 330.007 86.021 330.125 86.021H330.563C330.682 86.021 330.717 86.0801 330.729 86.1984L330.765 86.778C331.096 86.4705 331.83 85.9264 332.706 85.9264Z" fill="white"/>
<path d="M515.353 0C515.353 0 518.95 1.97854 520.534 6.4141C521.897 10.2338 522.119 12.7924 520.809 15.2804C520.792 15.2732 520.776 15.2641 520.759 15.2568C522.49 16.9229 524.126 18.6902 525.659 20.5507C525.284 19.5507 524.983 18.3923 524.723 17.0411C523.836 12.416 525.93 8.88719 525.93 8.88719C525.964 8.91354 529.188 11.4146 530.071 16.015C530.836 19.9981 530.664 22.5595 528.989 24.8198C528.922 24.7786 528.859 24.733 528.794 24.6904C530.401 27.0055 531.864 29.4378 533.164 31.9803C533.185 32.023 533.206 32.0669 533.228 32.1097C532.91 30.7765 532.827 29.2075 532.906 27.2929C533.102 22.5876 535.949 19.6305 535.949 19.6305C535.961 19.6447 538.542 22.8228 538.346 27.5177C538.178 31.5693 537.425 34.023 535.277 35.8403C535.061 35.6239 534.863 35.3997 534.68 35.1697C535.851 37.8104 536.835 40.5078 537.625 43.2478C537.669 42.0642 537.894 40.7411 538.273 39.2114H538.276C539.401 34.6744 542.74 32.3484 542.791 32.3136C542.792 32.3161 544.696 35.9508 543.562 40.5198C542.585 44.4561 541.353 46.7097 538.885 48.0593C538.843 47.9964 538.805 47.9317 538.766 47.8685C539.353 50.7015 539.743 53.5668 539.931 56.4472C540.158 55.0843 540.701 53.5944 541.534 51.8448C543.561 47.5929 547.342 45.9901 547.342 45.9901C547.342 45.9901 548.478 49.9335 546.451 54.1846C544.705 57.8467 543.048 59.808 540.359 60.6379C540.238 60.336 540.138 60.0348 540.057 59.7333C540.096 62.912 539.888 66.0994 539.437 69.2728C539.923 67.9312 540.777 66.5304 541.996 64.9148C544.815 61.179 548.806 60.3505 548.858 60.3398C548.858 60.3398 549.182 64.4301 546.345 68.1905C543.901 71.4289 541.884 73.0204 539.084 73.2948C539.012 72.9055 538.973 72.5232 538.961 72.1459C538.527 74.4327 537.969 76.7092 537.277 78.9639C537.041 79.7321 536.786 80.4921 536.523 81.2474C537.26 80.1652 538.293 79.0814 539.644 77.8894C543.154 74.7937 547.229 74.7798 547.285 74.7797C547.285 74.7797 546.783 78.8518 543.249 81.969C540.206 84.6525 537.912 85.8078 535.113 85.5165C535.117 85.281 535.134 85.0505 535.158 84.8237C534.053 87.4707 532.774 90.0244 531.336 92.4744C532.272 91.5688 533.496 90.72 535.047 89.8287C539.112 87.4943 543.113 88.3025 543.155 88.3112C543.137 88.3637 541.82 92.2167 537.762 94.5475C534.243 96.5679 531.762 97.2412 529.079 96.3958C529.124 96.1943 529.178 95.998 529.237 95.8063C527.824 97.9002 526.288 99.9049 524.635 101.813C525.622 101.263 526.801 100.78 528.207 100.315C532.68 98.8326 536.456 100.449 536.456 100.449C536.44 100.478 534.377 104.004 529.922 105.48C526.095 106.748 523.538 106.916 521.094 105.58C519.233 107.401 517.254 109.11 515.166 110.7C516.288 110.324 517.603 110.066 519.165 109.88C523.834 109.325 527.203 111.65 527.221 111.663C527.213 111.673 524.484 114.729 519.81 115.285C515.78 115.765 513.235 115.412 511.098 113.582C511.113 113.561 511.129 113.541 511.144 113.521C510.017 114.249 508.866 114.948 507.686 115.609C504.626 117.326 503.94 118.546 503.686 119.416C503.616 119.658 503.441 119.843 503.226 119.933C503.061 120.004 502.872 120.021 502.685 119.967C502.257 119.843 502.011 119.395 502.135 118.967C502.639 117.236 504.108 115.768 506.895 114.204C507.714 113.745 508.518 113.266 509.311 112.774C507.933 110.573 507.875 108.078 508.682 104.333C509.674 99.729 512.983 97.299 512.983 97.299C512.999 97.3285 514.994 100.893 514.006 105.478C513.475 107.946 512.823 109.765 511.822 111.131C514.508 109.279 517.024 107.228 519.359 105.005C517.664 103.142 517.132 100.735 517.171 96.9905C517.221 92.2812 519.976 89.2379 519.976 89.2379C519.976 89.2379 522.666 92.3387 522.616 97.048C522.593 99.3132 522.368 101.085 521.812 102.537C523.767 100.452 525.57 98.2335 527.214 95.8978C525.036 94.4144 523.988 92.1351 523.253 88.3347C522.358 83.7109 524.446 80.1782 524.446 80.1782C524.446 80.1782 527.704 82.6775 528.599 87.3021C529.105 89.9161 529.202 91.9153 528.739 93.622C530.347 91.1038 531.776 88.4623 533.011 85.7126C530.647 84.6793 529.187 82.6619 527.729 79.1403C525.925 74.7896 527.266 70.9106 527.266 70.9106C527.301 70.9279 530.966 72.7277 532.761 77.0581C533.724 79.382 534.221 81.2442 534.179 82.931C534.749 81.4768 535.27 79.9969 535.732 78.4907C536.196 76.9797 536.598 75.4585 536.942 73.9314C534.353 73.4228 532.491 71.7375 530.319 68.5251C527.681 64.6227 528.216 60.5542 528.216 60.5542C528.216 60.5542 532.194 61.577 534.833 65.4795C536.364 67.7447 537.247 69.584 537.463 71.3799C538.042 68.1925 538.361 64.9838 538.429 61.779C535.792 61.7962 533.632 60.5187 530.863 57.8079C527.496 54.5125 527.206 50.42 527.206 50.42C527.206 50.42 531.307 50.6262 534.673 53.9205C536.625 55.831 537.858 57.4551 538.43 59.1687C538.357 55.82 538.008 52.4841 537.382 49.19C534.849 49.6823 532.502 48.8529 529.297 46.7849C525.338 44.2299 524.233 40.278 524.233 40.278C524.243 40.2765 528.298 39.6632 532.253 42.2151C534.348 43.5678 535.808 44.8061 536.735 46.2019C536.008 43.2081 535.05 40.2583 533.864 37.3735C531.512 38.3146 529.063 37.963 525.556 36.5958C521.166 34.8841 519.292 31.2326 519.292 31.2326C519.315 31.2244 523.158 29.8187 527.536 31.5254C529.732 32.3814 531.351 33.2524 532.524 34.3423C532.266 33.7976 532.001 33.2539 531.726 32.7149C530.696 30.7002 529.559 28.7572 528.33 26.8877C526 28.1854 523.482 28.0922 519.726 27.008C515.225 25.7082 513.027 22.2735 513.002 22.2343C513.002 22.2343 516.711 20.4725 521.24 21.7794L521.239 21.7781C523.428 22.4103 525.084 23.1023 526.338 24.0329C524.701 21.8277 522.922 19.7435 521.016 17.7888C518.696 19.3688 516.13 19.4442 512.181 18.5325C507.59 17.4716 505.208 14.1288 505.208 14.1288C505.227 14.1186 508.828 12.1719 513.409 13.2295C515.199 13.6427 516.643 14.1161 517.818 14.734C516.143 13.2488 514.385 11.8587 512.554 10.5642C509.891 11.0117 507.154 10.2069 503.404 8.27415C498.373 5.68273 496.462 1.3372 496.462 1.3372C496.475 1.33442 501.121 0.377998 506.143 2.96588C509.924 4.91453 512.176 6.68797 513.347 9.146C514.652 10.0627 515.918 11.0296 517.146 12.0413C516.508 11.016 515.948 9.76538 515.405 8.24278C513.821 3.80705 515.353 0 515.353 0Z" fill="white"/>
</svg>
