<svg width="24" height="24" viewBox="0 0 24 24" fill="none" xmlns="http://www.w3.org/2000/svg">
<path d="M10.5036 17.5523H8.89106C8.42985 17.5513 7.98789 17.3672 7.66233 17.0405C7.33676 16.7138 7.15422 16.2712 7.15481 15.81M7.15481 10.2525C7.15481 7.55251 9.31406 5.36401 11.9773 5.36401C14.6406 5.36401 16.7983 7.55326 16.7983 10.2533M7.15481 10.2525H4.47731L4.47656 13.3485C4.47656 14.0798 5.07656 14.6723 5.81606 14.6723C6.55481 14.6723 7.15481 14.079 7.15481 13.3485V10.2525ZM16.7983 10.2533L19.4766 10.2525V13.3485C19.4766 14.079 18.8766 14.6723 18.1371 14.6723C17.3983 14.6723 16.7983 14.0798 16.7983 13.3485V10.2533ZM12.6021 16.815H11.3518C11.2575 16.8153 11.1642 16.8342 11.0773 16.8706C10.9903 16.907 10.9113 16.9602 10.8449 17.0271C10.7786 17.0941 10.726 17.1735 10.6903 17.2607C10.6547 17.348 10.6366 17.4415 10.6371 17.5358V17.5688C10.6371 17.9663 10.9573 18.2888 11.3518 18.2888H12.6013C12.9958 18.2888 13.3161 17.9663 13.3161 17.5688V17.5358C13.3161 17.1383 12.9958 16.8158 12.6013 16.8158" stroke="#2A2F47" stroke-width="1.5" stroke-linecap="round" stroke-linejoin="round"/>
</svg>
