<svg width="32" height="32" viewBox="0 0 32 32" fill="none" xmlns="http://www.w3.org/2000/svg">
<path d="M0 8C0 3.58172 3.58172 0 8 0H24C28.4183 0 32 3.58172 32 8V24C32 28.4183 28.4183 32 24 32H8C3.58172 32 0 28.4183 0 24V8Z" fill="#F4E3CC" fill-opacity="0.12"/>
<mask id="mask0_4_25" style="mask-type:luminance" maskUnits="userSpaceOnUse" x="5" y="18" width="22" height="6">
<path d="M5.17773 18.5312V22.552C5.17773 22.6392 5.19293 22.7264 5.21773 22.8064C5.29613 23.0608 5.47853 23.2224 5.67933 23.2224H26.3209C26.5217 23.2224 26.7041 23.0608 26.7825 22.8064C26.8065 22.7264 26.8225 22.6384 26.8225 22.552V18.5312" fill="white"/>
</mask>
<g mask="url(#mask0_4_25)">
<path d="M6.13777 18.5312C6.13777 18.2766 6.03663 18.0324 5.8566 17.8524C5.67656 17.6724 5.43238 17.5712 5.17777 17.5712C4.92317 17.5712 4.67899 17.6724 4.49895 17.8524C4.31892 18.0324 4.21777 18.2766 4.21777 18.5312H6.13777ZM5.21777 22.8064L4.30017 23.0888V23.0904L5.21777 22.8064ZM26.7826 22.8064L27.7002 23.0904L27.7018 23.0848L26.7826 22.8064ZM27.7826 18.5312C27.7826 18.4052 27.7577 18.2803 27.7095 18.1639C27.6613 18.0474 27.5905 17.9415 27.5014 17.8524C27.4123 17.7633 27.3064 17.6925 27.1899 17.6443C27.0735 17.5961 26.9486 17.5712 26.8226 17.5712C26.6965 17.5712 26.5717 17.5961 26.4552 17.6443C26.3387 17.6925 26.2329 17.7633 26.1437 17.8524C26.0546 17.9415 25.9839 18.0474 25.9356 18.1639C25.8874 18.2803 25.8626 18.4052 25.8626 18.5312H27.7826ZM4.21777 18.5312V22.552H6.13777V18.5312H4.21777ZM4.21777 22.552C4.21777 22.7456 4.24977 22.928 4.30017 23.0888L6.13537 22.524L6.13617 22.5312L6.13777 22.552H4.21777ZM4.30017 23.0904C4.45617 23.5944 4.91617 24.1816 5.67937 24.1816V22.2616C5.84657 22.2616 5.97217 22.3312 6.04257 22.3944C6.08343 22.4288 6.11506 22.4728 6.13457 22.5224L4.30017 23.0904ZM5.67937 24.1816H26.3218V22.2616H5.67937V24.1816ZM26.3218 24.1816C27.0842 24.1816 27.5442 23.5936 27.7002 23.0904L25.8666 22.5224C25.8861 22.4728 25.9177 22.4288 25.9586 22.3944C26.0597 22.3078 26.1887 22.2607 26.3218 22.2616V24.1816ZM27.7026 23.0856C27.7498 22.9296 27.7826 22.748 27.7826 22.552H25.8626C25.8626 22.5403 25.8634 22.5328 25.865 22.5296V22.528L27.7026 23.0856ZM27.7826 22.552V18.5312H25.8626V22.552H27.7826Z" fill="#F4E3CC"/>
</g>
<path d="M21.4146 12.5C21.921 12.5 22.4074 12.7784 22.765 13.2736L26.165 17.9768C26.2562 18.1024 26.305 18.272 26.305 18.4432C26.305 18.5288 26.293 18.6152 26.2682 18.696C26.1946 18.9424 26.0202 19.104 25.8274 19.104H6.16982C5.97782 19.104 5.80342 18.9424 5.72902 18.696C5.65542 18.4496 5.69622 18.1656 5.83302 17.976L9.23302 13.2736C9.59062 12.7792 10.0762 12.5 10.5834 12.5" stroke="#F4E3CC" stroke-width="1.2" stroke-linecap="round" stroke-linejoin="round"/>
<path d="M16 8.77841V16.1304" stroke="#F4E3CC" stroke-width="0.7" stroke-linecap="round"/>
<path d="M13.9585 9.1864L16.0001 11.0248L18.0425 9.1864M13.9585 15.9264L16.0001 14.088L18.0425 15.9264" stroke="#F4E3CC" stroke-width="0.7" stroke-linecap="round" stroke-linejoin="round"/>
<path d="M19.6762 12.4544H12.3242" stroke="#F4E3CC" stroke-width="0.7" stroke-linecap="round"/>
<path d="M19.2675 10.412L17.4299 12.4544L19.2675 14.4968M12.5283 10.412L14.3659 12.4544L12.5283 14.4968" stroke="#F4E3CC" stroke-width="0.7" stroke-linecap="round" stroke-linejoin="round"/>
</svg>
