<svg width="32" height="32" viewBox="0 0 32 32" fill="none" xmlns="http://www.w3.org/2000/svg">
<path d="M0 8C0 3.58172 3.58172 0 8 0H24C28.4183 0 32 3.58172 32 8V24C32 28.4183 28.4183 32 24 32H8C3.58172 32 0 28.4183 0 24V8Z" fill="#F4E3CC" fill-opacity="0.12"/>
<path d="M19.0942 21.3374V10.6627C19.0942 10.1907 18.9075 9.73803 18.5768 9.4047C18.4131 9.23947 18.2183 9.10833 18.0037 9.01885C17.789 8.92937 17.5587 8.88332 17.3262 8.88336H7.6015C7.13283 8.88336 6.68283 9.0707 6.3515 9.4047C6.0195 9.73803 5.8335 10.1907 5.8335 10.6627V20.448C5.8335 20.684 5.92683 20.91 6.09216 21.0774C6.25883 21.244 6.48283 21.3374 6.7175 21.3374H8.4855M8.4855 21.3374C8.48462 21.5704 8.52966 21.8012 8.61806 22.0168C8.70645 22.2324 8.83646 22.4284 9.00065 22.5937C9.16484 22.759 9.36 22.8904 9.57497 22.9802C9.78994 23.0701 10.0205 23.1167 10.2535 23.1174C10.4865 23.1168 10.7172 23.0702 10.9322 22.9804C11.1473 22.8906 11.3425 22.7593 11.5068 22.594C11.671 22.4286 11.8011 22.2326 11.8895 22.017C11.978 21.8013 12.023 21.5704 12.0222 21.3374M8.4855 21.3374C8.48479 21.1045 8.52997 20.8737 8.61844 20.6583C8.70691 20.4429 8.83695 20.247 9.00112 20.0819C9.16529 19.9167 9.36039 19.7855 9.57528 19.6957C9.79016 19.606 10.0206 19.5594 10.2535 19.5587C10.4864 19.5593 10.717 19.6058 10.9319 19.6955C11.1469 19.7853 11.3421 19.9165 11.5063 20.0816C11.6705 20.2468 11.8006 20.4427 11.8892 20.6582C11.9777 20.8736 12.0229 21.1044 12.0222 21.3374M12.0222 21.3374H19.9782M19.9782 21.3374C19.9773 21.5704 20.0224 21.8013 20.1108 22.017C20.1992 22.2326 20.3293 22.4286 20.4935 22.594C20.6578 22.7593 20.853 22.8906 21.0681 22.9804C21.2831 23.0702 21.5138 23.1168 21.7468 23.1174C21.9798 23.1167 22.2104 23.0701 22.4254 22.9802C22.6403 22.8904 22.8355 22.759 22.9997 22.5937C23.1639 22.4284 23.2939 22.2324 23.3823 22.0168C23.4707 21.8012 23.5157 21.5704 23.5148 21.3374M19.9782 21.3374C19.9775 21.1044 20.0227 20.8736 20.1112 20.6582C20.1997 20.4427 20.3298 20.2468 20.494 20.0816C20.6583 19.9165 20.8534 19.7853 21.0684 19.6955C21.2834 19.6058 21.5139 19.5593 21.7468 19.5587C21.9797 19.5594 22.2102 19.606 22.425 19.6957C22.6399 19.7855 22.835 19.9167 22.9992 20.0819C23.1634 20.247 23.2934 20.4429 23.3819 20.6583C23.4704 20.8737 23.5155 21.1045 23.5148 21.3374M23.5148 21.3374H25.2828C25.5175 21.3374 25.7422 21.244 25.9082 21.0774C26.0735 20.9107 26.1668 20.684 26.1668 20.448V17.2014C26.1665 16.9996 26.0979 16.8038 25.9722 16.646L22.8962 12.776C22.8135 12.6723 22.7085 12.5884 22.5891 12.5306C22.4697 12.4728 22.3388 12.4425 22.2062 12.442H19.0942" stroke="#F4E3CC" stroke-width="1.5" stroke-linecap="round" stroke-linejoin="round"/>
</svg>
