<svg width="24" height="24" viewBox="0 0 24 24" fill="none" xmlns="http://www.w3.org/2000/svg">
<path d="M12.001 4C9.87924 4 7.84441 4.84285 6.34412 6.34315C4.84383 7.84344 4.00098 9.87827 4.00098 12C4.00098 14.1217 4.84383 16.1566 6.34412 17.6569C7.84441 19.1571 9.87924 20 12.001 20C14.1227 20 16.1575 19.1571 17.6578 17.6569C19.1581 16.1566 20.001 14.1217 20.001 12C20.001 9.87827 19.1581 7.84344 17.6578 6.34315C16.1575 4.84285 14.1227 4 12.001 4ZM11.816 8.704C11.8486 8.51005 11.9514 8.3349 12.105 8.212C12.2487 8.08075 12.4363 8.00799 12.631 8.008C12.823 8.008 12.9783 8.076 13.097 8.212C13.1554 8.27819 13.1974 8.35726 13.2195 8.44277C13.2416 8.52827 13.2431 8.61779 13.224 8.704C13.1889 8.8965 13.0869 9.0704 12.936 9.195C12.7911 9.32426 12.6041 9.39641 12.41 9.398C12.3232 9.40128 12.2369 9.38469 12.1575 9.34951C12.0781 9.31433 12.0078 9.26148 11.952 9.195C11.8957 9.12734 11.8544 9.04848 11.831 8.96365C11.8075 8.87881 11.8024 8.78996 11.816 8.703M14.04 14.493L14.023 14.518L13.979 14.574C13.794 14.807 13.184 15.503 12.255 15.848L12.157 15.884L12.117 15.898L12.115 15.897C11.9176 15.9583 11.726 15.9897 11.54 15.991C11.128 15.991 10.922 15.8027 10.922 15.426C10.922 15.266 11.0063 14.777 11.175 13.959L11.505 12.375L11.59 11.975L11.658 11.653C11.686 11.517 11.7 11.403 11.7 11.311C11.7 11.207 11.67 11.141 11.624 11.094C11.56 11.042 11.46 11.051 11.408 11.063C11.295 11.093 11.166 11.146 11.116 11.167C10.7067 11.3748 10.3438 11.6632 10.049 12.015C9.94231 11.9497 9.88898 11.884 9.88898 11.818C9.89031 11.7333 9.93031 11.639 10.009 11.535L10.012 11.532C10.072 11.452 10.1553 11.367 10.262 11.277C10.401 11.148 10.601 10.989 10.852 10.83L10.886 10.807C11.813 10.197 12.438 10.244 12.438 10.244L12.437 10.246C12.5772 10.2608 12.7096 10.3176 12.817 10.409C12.832 10.421 12.837 10.431 12.847 10.442L12.874 10.472C12.8832 10.4844 12.8909 10.4978 12.897 10.512C12.9634 10.6179 12.9968 10.7411 12.993 10.866C12.9817 11.0271 12.959 11.1872 12.925 11.345L12.85 11.734L12.757 12.206L12.41 13.871L12.325 14.243C12.2516 14.6123 12.215 14.8587 12.215 14.982C12.2163 15.1313 12.2746 15.2127 12.39 15.226C12.43 15.223 12.555 15.211 12.688 15.164C12.733 15.143 12.779 15.125 12.823 15.102L12.831 15.097C13.337 14.817 13.726 14.347 13.831 14.215C13.848 14.189 13.865 14.168 13.883 14.143C14.0336 14.205 14.1093 14.265 14.11 14.323C14.1093 14.3663 14.085 14.423 14.037 14.493H14.04Z" fill="#F4E3CC"/>
</svg>
