<svg width="32" height="32" viewBox="0 0 32 32" fill="none" xmlns="http://www.w3.org/2000/svg">
<path d="M0 8C0 3.58172 3.58172 0 8 0H24C28.4183 0 32 3.58172 32 8V24C32 28.4183 28.4183 32 24 32H8C3.58172 32 0 28.4183 0 24V8Z" fill="#F4E3CC" fill-opacity="0.12"/>
<path d="M10.8396 15.1667H11.3396V14.6667H10.8396V15.1667ZM7.6665 15.1667V14.6667H7.1665V15.1667H7.6665ZM10.8396 24.3334V24.8334H11.3396V24.3334H10.8396ZM7.6665 24.3334H7.1665V24.8334H7.6665V24.3334ZM17.1858 20.3566L17.0205 20.8285C17.0736 20.8471 17.1295 20.8566 17.1858 20.8566V20.3566ZM24.3332 21.9473L24.5089 22.4154C24.7055 22.3415 24.8351 22.1527 24.8331 21.9428L24.3332 21.9473ZM17.9791 24.3334L17.8426 24.8144C17.9454 24.8435 18.0548 24.839 18.1548 24.8014L17.9791 24.3334ZM12.4261 22.7586H11.9261V23.1365L12.2897 23.2396L12.4261 22.7586ZM12.4261 15.5844V15.0844H11.9261V15.5844H12.4261ZM13.9889 15.5844L14.1641 15.1162C14.1081 15.0952 14.0487 15.0844 13.9889 15.0844V15.5844ZM19.7481 17.7399L19.9307 17.2743L19.9233 17.2716L19.7481 17.7399ZM17.1858 19.5612L17.0075 20.0284C17.0644 20.0501 17.1248 20.0612 17.1858 20.0612V19.5612ZM15.7896 19.0283L15.9679 18.5612C15.8418 18.5131 15.7015 18.518 15.5791 18.5748C15.4566 18.6317 15.3623 18.7357 15.3177 18.8631L15.7896 19.0283ZM15.5278 19.776L15.0559 19.6107C14.9647 19.8714 15.102 20.1566 15.3626 20.2479L15.5278 19.776ZM18.507 12.0237L19.0056 11.9862L18.507 12.0237ZM10.8396 15.1667V14.6667H7.6665V15.1667V15.6667H10.8396V15.1667ZM10.8396 24.3334H11.3396V15.1667H10.8396H10.3396V24.3334H10.8396ZM7.6665 24.3334V24.8334H10.8396V24.3334V23.8334H7.6665V24.3334ZM7.6665 15.1667H7.1665V24.3334H7.6665H8.1665V15.1667H7.6665ZM22.7387 20.3566V19.8566H17.1858V20.3566V20.8566H22.7387V20.3566ZM24.3332 21.9473L24.8331 21.9428C24.8228 20.799 23.8991 19.8566 22.7387 19.8566V20.3566V20.8566C23.3394 20.8566 23.8277 21.3458 23.8332 21.9518L24.3332 21.9473ZM17.9791 24.3334L18.1548 24.8014L24.5089 22.4154L24.3332 21.9473L24.1574 21.4792L17.8033 23.8653L17.9791 24.3334ZM12.4261 22.7586L12.2897 23.2396L17.8426 24.8144L17.9791 24.3334L18.1155 23.8523L12.5626 22.2775L12.4261 22.7586ZM12.4261 15.5844H11.9261V22.7586H12.4261H12.9261V15.5844H12.4261ZM13.9889 15.5844V15.0844H12.4261V15.5844V16.0844H13.9889V15.5844ZM19.7481 17.7399L19.9233 17.2716L14.1641 15.1162L13.9889 15.5844L13.8136 16.0527L19.5728 18.2081L19.7481 17.7399ZM20.3589 18.6227H20.8589C20.8589 18.0202 20.4803 17.49 19.9307 17.2744L19.7481 17.7399L19.5654 18.2053C19.7456 18.276 19.8589 18.4458 19.8589 18.6227H20.3589ZM19.4228 19.5612V20.0612C20.2158 20.0612 20.8589 19.4146 20.8589 18.6227H20.3589H19.8589C19.8589 18.8648 19.6611 19.0612 19.4228 19.0612V19.5612ZM17.1858 19.5612V20.0612H19.4228V19.5612V19.0612H17.1858V19.5612ZM15.7896 19.0283L15.6113 19.4955L17.0075 20.0284L17.1858 19.5612L17.3641 19.0941L15.9679 18.5612L15.7896 19.0283ZM15.5278 19.776L15.9997 19.9412L16.2615 19.1936L15.7896 19.0283L15.3177 18.8631L15.0559 19.6107L15.5278 19.776ZM17.1858 20.3566L17.351 19.8847L15.6931 19.3041L15.5278 19.776L15.3626 20.2479L17.0205 20.8285L17.1858 20.3566ZM23.4998 11.8334H22.9998C22.9998 12.9379 22.1044 13.8334 20.9998 13.8334V14.3334V14.8334C22.6567 14.8334 23.9998 13.4902 23.9998 11.8334H23.4998ZM20.9998 9.33335V9.83335C22.1044 9.83335 22.9998 10.7288 22.9998 11.8334H23.4998H23.9998C23.9998 10.1765 22.6567 8.83335 20.9998 8.83335V9.33335ZM16.8332 12.6667V12.1667C15.7286 12.1667 14.8332 11.2713 14.8332 10.1667H14.3332H13.8332C13.8332 11.8235 15.1763 13.1667 16.8332 13.1667V12.6667ZM14.3332 10.1667H14.8332C14.8332 9.06212 15.7286 8.16669 16.8332 8.16669V7.66669V7.16669C15.1763 7.16669 13.8332 8.50983 13.8332 10.1667H14.3332ZM18.507 12.0237L18.1721 11.6524C17.8172 11.9725 17.3485 12.1667 16.8332 12.1667V12.6667V13.1667C17.6054 13.1667 18.3104 12.8743 18.8419 12.395L18.507 12.0237ZM20.9998 14.3334V13.8334C19.9467 13.8334 19.0833 13.0191 19.0056 11.9862L18.507 12.0237L18.0084 12.0612C18.1251 13.6119 19.4196 14.8334 20.9998 14.8334V14.3334ZM18.507 12.0237L19.0056 11.9862C19.0018 11.9358 18.9998 11.8849 18.9998 11.8334H18.4998H17.9998C17.9998 11.9099 18.0027 11.9859 18.0084 12.0612L18.507 12.0237ZM16.8332 7.66669V8.16669C17.8863 8.16669 18.7497 8.98096 18.8274 10.0139L19.326 9.97634L19.8246 9.93881C19.7079 8.38816 18.4134 7.16669 16.8332 7.16669V7.66669ZM18.4998 11.8334H18.9998C18.9998 11.2438 19.2543 10.7144 19.6609 10.3476L19.326 9.97634L18.9912 9.60505C18.3832 10.1534 17.9998 10.949 17.9998 11.8334H18.4998ZM19.326 9.97634L19.6609 10.3476C20.0158 10.0276 20.4845 9.83335 20.9998 9.83335V9.33335V8.83335C20.2276 8.83335 19.5226 9.12575 18.9912 9.60505L19.326 9.97634Z" fill="#F4E3CC"/>
</svg>
