<svg width="32" height="32" viewBox="0 0 32 32" fill="none" xmlns="http://www.w3.org/2000/svg">
<path d="M0 8C0 3.58172 3.58172 0 8 0H24C28.4183 0 32 3.58172 32 8V24C32 28.4183 28.4183 32 24 32H8C3.58172 32 0 28.4183 0 24V8Z" fill="#F4E3CC" fill-opacity="0.12"/>
<path d="M4 23.4562H27.478" stroke="#F4E3CC" stroke-width="1.10541" stroke-linecap="round"/>
<path d="M12.0397 19.3485H4.91504V23.412H25.5035V21.1771M11.9404 16.3371L11.9223 16.3822L11.9178 16.4273L11.8275 17.1046H8.03037L7.99427 16.6079C7.9717 16.2106 7.95815 15.8178 7.95815 15.6914C7.96292 15.1713 8.17381 14.6743 8.54453 14.3095C8.91533 13.9447 9.41557 13.7418 9.93573 13.7454C10.1931 13.7431 10.4484 13.7914 10.687 13.8876C10.9256 13.9839 11.143 14.1263 11.3266 14.3066C11.5103 14.4868 11.6566 14.7015 11.7572 14.9383C11.8579 15.1752 11.9109 15.4295 11.9133 15.6869C11.9133 15.8133 11.9268 15.9532 11.9404 16.0526L11.9494 16.1429C11.9584 16.2558 11.9494 16.3055 11.9404 16.3371Z" stroke="#F4E3CC" stroke-width="1.10541"/>
<path d="M11.7754 15.7805H23.7085C24.1876 15.7805 24.6469 15.9707 24.9856 16.3094C25.3243 16.6482 25.5145 17.1075 25.5145 17.5865V21.1985H11.7754V15.7805Z" stroke="#F4E3CC" stroke-width="1.10541"/>
<path d="M4.9082 18.0382C4.9082 17.5415 5.31456 17.1351 5.8112 17.1351H11.7845V19.3926H4.9082V18.0382Z" stroke="#F4E3CC" stroke-width="1.10541"/>
<mask id="mask0_8_189" style="mask-type:luminance" maskUnits="userSpaceOnUse" x="11" y="4" width="10" height="10">
<path fill-rule="evenodd" clip-rule="evenodd" d="M14.5968 12.4978C16.0325 12.9312 17.658 12.5881 18.7957 11.4638C19.1845 11.0822 19.4933 10.627 19.7042 10.1246C19.915 9.62223 20.0236 9.08287 20.0236 8.53807C20.0236 7.99335 19.915 7.45399 19.7042 6.95167C19.4933 6.44927 19.1845 5.99402 18.7957 5.61239C18.0039 4.83532 16.9388 4.39999 15.8294 4.39999C14.72 4.39999 13.6549 4.83532 12.863 5.61239C12.2233 6.24055 11.8072 7.06111 11.6784 7.94831C11.5495 8.83551 11.7151 9.74055 12.1497 10.5247L11.5853 12.5971C11.565 12.6738 11.5653 12.7544 11.5861 12.8309C11.607 12.9074 11.6476 12.977 11.7039 13.0329C11.7601 13.0887 11.8301 13.1287 11.9069 13.149C11.9835 13.1691 12.0641 13.1688 12.1406 13.1479L14.5968 12.4978Z" fill="white"/>
</mask>
<g mask="url(#mask0_8_189)">
<path d="M14.5967 12.4973L14.8676 11.6394L14.6148 11.5627L14.3619 11.6304L14.5967 12.4973ZM12.1496 10.5242L13.0255 10.7545L13.1158 10.4069L12.9442 10.0908L12.1496 10.5242ZM11.5852 12.5966L10.7048 12.3663L11.5852 12.5921V12.5966ZM18.1546 10.8313C17.7294 11.2498 17.1993 11.5457 16.6199 11.6879C16.0406 11.8302 15.4337 11.8134 14.8631 11.6394L14.3348 13.3551C15.2196 13.6234 16.1602 13.6485 17.058 13.4276C17.9558 13.2067 18.7775 12.7481 19.4368 12.1L18.1546 10.8313ZM18.1546 6.24856C18.4591 6.54736 18.701 6.90392 18.8662 7.29736C19.0314 7.6908 19.1164 8.1132 19.1164 8.53992C19.1164 8.96656 19.0314 9.38896 18.8662 9.7824C18.701 10.1758 18.4591 10.5324 18.1546 10.8313L19.4368 12.0954C19.9091 11.6311 20.2842 11.0774 20.5403 10.4666C20.7964 9.85568 20.9283 9.2 20.9283 8.5376C20.9283 7.87528 20.7964 7.2196 20.5403 6.60872C20.2842 5.99788 19.9091 5.44415 19.4368 4.97982L18.1546 6.244V6.24856ZM13.5041 6.24856C14.1246 5.63913 14.9596 5.29769 15.8293 5.29769C16.699 5.29769 17.534 5.63913 18.1546 6.24856L19.4368 4.97982C18.4737 4.03509 17.1784 3.50586 15.8293 3.50586C14.4802 3.50586 13.185 4.03509 12.2218 4.97982L13.5086 6.244L13.5041 6.24856ZM12.9442 10.0908C12.6057 9.47664 12.4776 8.76848 12.5795 8.07464C12.6814 7.3808 13.0078 6.73944 13.5086 6.24856L12.2173 4.97982C10.5738 6.59616 10.2849 9.04328 11.3459 10.9531L12.9397 10.0953L12.9442 10.0908ZM12.4611 12.8269L13.03 10.7545L11.2737 10.2894L10.7093 12.3663L12.4702 12.8269H12.4611ZM11.9058 12.2806C11.9818 12.2601 12.0618 12.2598 12.138 12.2798C12.2142 12.2998 12.2838 12.3394 12.3399 12.3946C12.3961 12.4498 12.4368 12.5188 12.4581 12.5946C12.4793 12.6705 12.4804 12.7506 12.4611 12.8269L10.7048 12.3663C10.6457 12.5962 10.648 12.8375 10.7115 13.0662C10.775 13.2949 10.8975 13.5028 11.0667 13.6693C11.2358 13.8357 11.4458 13.9547 11.6754 14.0146C11.9051 14.0743 12.1465 14.0726 12.3754 14.0098L11.9058 12.2806ZM14.3619 11.6304L11.9058 12.2806L12.3754 14.0098L14.836 13.3642L14.3619 11.6304Z" fill="#F4E3CC"/>
</g>
<path d="M14.791 7.48169H16.6828L14.7956 9.34185H16.6828" stroke="#F4E3CC" stroke-width="1.10541" stroke-linecap="round" stroke-linejoin="round"/>
</svg>
